<?xml version="1.0" encoding="UTF-8"?>
<svg version="1.1" xmlns="http://www.w3.org/2000/svg" width="500" height="500">
<path d="M0 0 C165 0 330 0 500 0 C500 165 500 330 500 500 C335 500 170 500 0 500 C0 335 0 170 0 0 Z " fill="#0305E8" transform="translate(0,0)"/>
<path d="M0 0 C1.01642578 0.21551514 2.03285156 0.43103027 3.08007812 0.65307617 C19.35742786 4.28435106 35.02314205 9.89348004 49.66210938 17.89892578 C51.64482776 18.98249259 53.64195093 20.03604048 55.640625 21.08984375 C68.46342686 27.95795346 79.24415665 36.44721009 89.80859375 46.39453125 C91.74649145 48.18399423 93.67559726 49.87879528 95.7109375 51.546875 C119.69720999 71.6559144 136.43869879 105.19885913 144.75 134.6875 C145.10723145 135.93527222 145.10723145 135.93527222 145.47167969 137.20825195 C149.5150011 152.24027753 151.05149812 167.21864693 150.89868164 182.74658203 C150.87481385 185.33266907 150.87819185 187.91773459 150.88476562 190.50390625 C150.86869215 199.84059068 150.29105397 208.73551704 148.5625 217.9375 C148.38589844 219.20980469 148.20929688 220.48210937 148.02734375 221.79296875 C142.09116709 259.30081094 121.98762857 291.58758177 96.5625 318.9375 C95.9128125 319.65292969 95.263125 320.36835938 94.59375 321.10546875 C73.48420084 343.39228123 45.21554867 357.27120638 16.5625 366.9375 C15.32757813 367.36160156 14.09265625 367.78570312 12.8203125 368.22265625 C-4.43652685 373.66456123 -22.06176047 374.21974795 -40 374.25 C-40.8634906 374.25358521 -41.7269812 374.25717041 -42.61663818 374.26086426 C-91.05809094 374.36898993 -134.46881415 353.54495626 -169.4375 320.9375 C-170.17742187 320.25171875 -170.91734375 319.5659375 -171.6796875 318.859375 C-178.33553309 312.46407852 -183.98180998 305.3550341 -189.4375 297.9375 C-189.9212207 297.28168945 -190.40494141 296.62587891 -190.90332031 295.95019531 C-208.0260615 272.38523467 -220.38637954 243.89798922 -224.4375 214.9375 C-224.5288623 214.30183105 -224.62022461 213.66616211 -224.71435547 213.01123047 C-225.74604754 204.59769885 -225.65942514 196.11822725 -225.67773438 187.65478516 C-225.68737832 184.97135673 -225.71844978 182.28871635 -225.75 179.60546875 C-225.84878557 163.74189344 -223.65632618 148.83035333 -219.3125 133.5625 C-219.0131958 132.50796631 -218.7138916 131.45343262 -218.40551758 130.36694336 C-215.36721981 120.07923764 -211.29485306 110.48697649 -206.4375 100.9375 C-205.85162109 99.77613525 -205.85162109 99.77613525 -205.25390625 98.59130859 C-195.98458075 80.46673812 -183.80666842 65.28418145 -169.4375 50.9375 C-168.7053125 50.17050781 -167.973125 49.40351562 -167.21875 48.61328125 C-141.31555497 21.77863571 -106.40521421 6.62360296 -70.4375 -1.0625 C-69.18453125 -1.330625 -67.9315625 -1.59875 -66.640625 -1.875 C-45.47958444 -5.4515139 -20.91077501 -4.44623438 0 0 Z " fill="#FCFCFD" transform="translate(287.4375,62.0625)"/>
<path d="M0 0 C77.55 0 155.1 0 235 0 C235 165 235 330 235 500 C158.44 500 81.88 500 3 500 C3 499.67 3 499.34 3 499 C4.47919922 498.88785156 4.47919922 498.88785156 5.98828125 498.7734375 C52.6397817 494.67140941 101.47154021 476.81950432 137.40380859 446.35205078 C139.05315738 444.95497315 140.72234333 443.58446794 142.39453125 442.21484375 C155.43290192 431.41618194 167.75416552 419.50329017 178 406 C178.81082031 404.96746094 179.62164062 403.93492187 180.45703125 402.87109375 C194.31164792 384.90644581 205.41281745 364.96235591 214 344 C214.32935547 343.20464844 214.65871094 342.40929687 214.99804688 341.58984375 C234.69657198 293.3304714 236.76647129 236.30276978 224 186 C223.68337402 184.74437256 223.68337402 184.74437256 223.36035156 183.46337891 C216.01276506 155.1315835 202.79517509 128.83178349 186 105 C185.51128418 104.30487305 185.02256836 103.60974609 184.51904297 102.89355469 C177.12835158 92.48085877 168.90610133 83.134935 160 74 C159.01817037 72.97792106 158.03639626 71.95578879 157.0546875 70.93359375 C151.06067581 64.79442793 144.7927253 59.23883389 138 54 C137.4539209 53.57750977 136.9078418 53.15501953 136.34521484 52.71972656 C96.34133465 21.9786028 50.02361543 5.102953 0 1 C0 0.67 0 0.34 0 0 Z " fill="#FEFEFE" transform="translate(265,0)"/>
<path d="M0 0 C76.89 0 153.78 0 233 0 C233 0.33 233 0.66 233 1 C232.351521 1.07516846 231.70304199 1.15033691 231.03491211 1.2277832 C218.57933517 2.68672329 206.22499539 4.14662849 194 7 C193.33387695 7.14598633 192.66775391 7.29197266 191.98144531 7.44238281 C163.56594501 13.73522401 135.83376497 26.33068096 112 43 C111.27603027 43.50370117 110.55206055 44.00740234 109.80615234 44.52636719 C98.36091477 52.5548682 87.95630481 61.19859017 78 71 C76.90812006 72.05397414 75.81568717 73.10737579 74.72265625 74.16015625 C68.31475656 80.3857983 62.44847069 86.91042368 57 94 C56.57895996 94.54462891 56.15791992 95.08925781 55.72412109 95.65039062 C48.0461812 105.64096302 41.30812366 116.09804702 35 127 C34.60570801 127.67724121 34.21141602 128.35448242 33.80517578 129.05224609 C23.58950642 146.81313478 16.17790043 166.20465228 11 186 C10.71769531 187.00160156 10.43539063 188.00320312 10.14453125 189.03515625 C8.50487754 195.08606105 7.38376629 201.19338831 6.375 207.375 C6.2517334 208.11733887 6.1284668 208.85967773 6.00146484 209.62451172 C3.83915961 223.55238929 3.72496336 237.62492272 3.6875 251.6875 C3.68488159 252.6327655 3.68226318 253.57803101 3.67956543 254.55194092 C3.67488747 270.37847748 4.81609262 285.45874913 8 301 C8.27996893 302.49869399 8.55991862 303.99739158 8.83984375 305.49609375 C16.23725667 342.48753033 34.50533241 377.76271303 58 407 C58.47228027 407.58797363 58.94456055 408.17594727 59.43115234 408.78173828 C70.5442693 422.46264435 82.98291883 435.29117946 97 446 C98.15283299 446.9160513 99.30514278 447.83276129 100.45703125 448.75 C138.63537258 478.71725433 183.34620057 493.25943551 231 499 C231 499.33 231 499.66 231 500 C154.77 500 78.54 500 0 500 C0 335 0 170 0 0 Z " fill="#FEFEFE" transform="translate(0,0)"/>
<path d="M0 0 C1.6308578 1.36168709 3.21468128 2.78143427 4.75 4.25 C7.85363522 7.41087184 7.85363522 7.41087184 12.0625 8.1875 C13.031875 7.795625 14.00125 7.40375 15 7 C16.35337298 6.49785566 17.70758929 5.99798024 19.0625 5.5 C19.69285156 5.2421875 20.32320313 4.984375 20.97265625 4.71875 C31.14531429 1.11225852 44.32769627 1.82679643 54.0390625 6.4453125 C64.86722562 12.43707522 71.99693083 19.4272247 76.12890625 31.22265625 C77.13290774 35.57633086 77.2239702 39.49526084 77.125 43.9375 C77.11597656 44.71673828 77.10695312 45.49597656 77.09765625 46.29882812 C77.07433691 48.19935447 77.03847586 50.09972008 77 52 C77.77730469 51.97035156 78.55460938 51.94070312 79.35546875 51.91015625 C82 52 82 52 84.3125 53.4375 C86.79718618 57.21054198 86.79728965 60.60709038 86 65 C84.125 68.0625 84.125 68.0625 82 70 C81.34 70 80.68 70 80 70 C82.11391395 73.8755089 84.64903673 77.00517278 87.59765625 80.25390625 C91.1780359 84.71192771 91.49097805 88.57609766 91.37890625 94.1796875 C90.60073559 99.9718444 87.33818107 104.01064111 83.0625 107.8125 C75.82203676 112.98425946 69.89213737 114.31892947 61 113 C56.38747304 111.00034959 53.00950938 108.5120599 50.2109375 104.3203125 C48.13067355 101.65888668 48.13067355 101.65888668 44.57421875 101.50390625 C43.29160156 101.52324219 42.00898438 101.54257812 40.6875 101.5625 C34.89841517 101.46631728 31.24522067 100.79896879 27.1015625 96.5703125 C24.78226226 93.26407598 24.89173574 90.20246188 24.9375 86.3125 C24.94652344 85.31863281 24.95554687 84.32476562 24.96484375 83.30078125 C24.97644531 82.54152344 24.98804688 81.78226562 25 81 C24.175 80.95875 23.35 80.9175 22.5 80.875 C14.86293674 78.96573418 10.21250271 73.69766065 6.1875 67.16796875 C3.55525976 62.36239857 2.74012147 58.45744923 3 53 C2.505 53.165 2.01 53.33 1.5 53.5 C-4.16177204 54.63235441 -8.80323362 54.45402857 -14 52 C-15.32676508 51.64141484 -16.65835921 51.2981424 -18 51 C-18.70125 51.94875 -19.4025 52.8975 -20.125 53.875 C-22.54070459 57.14330621 -25.14944718 57.90136582 -29 59 C-28.95359375 60.134375 -28.9071875 61.26875 -28.859375 62.4375 C-28.40514381 78.07206825 -28.40514381 78.07206825 -33 84 C-33.45890625 84.62132812 -33.9178125 85.24265625 -34.390625 85.8828125 C-39.63257754 92.47663701 -45.86872732 96.03405085 -54 98 C-55.60188498 98.15146028 -57.20644173 98.2772629 -58.8125 98.375 C-62.41264053 98.64828361 -62.41264053 98.64828361 -65 101.25 C-65.99 102.61125 -65.99 102.61125 -67 104 C-70.95957814 106.87049967 -74.77343184 108.74177512 -79.5625 109.75 C-85.11020148 108.5395924 -89.17056859 104.81583331 -92.24609375 100.08203125 C-93.18446651 97.49056657 -93.06288909 95.66704561 -92.75 92.9375 C-92.66234375 92.08027344 -92.5746875 91.22304688 -92.484375 90.33984375 C-92 88 -92 88 -90 85 C-90.2679156 81.91897055 -90.85159664 79.37100841 -92 76.5 C-94.58395291 70.04011773 -95.33975652 62.0312853 -93.12890625 55.37890625 C-90.00544172 48.65065642 -85.83201063 42.87523924 -79.0625 39.5625 C-78.381875 39.376875 -77.70125 39.19125 -77 39 C-77.33 37.865625 -77.66 36.73125 -78 35.5625 C-79.4446912 29.64764112 -80.17592302 24.39888295 -77.4375 18.8125 C-71.30592082 11.73760095 -65.56225938 7.62799703 -56.125 6.5625 C-50.35547963 6.7685543 -45.08621332 9.45689334 -40 12 C-37.9625237 12.22858114 -35.91959697 12.41024278 -33.875 12.5625 C-32.23144531 12.68818359 -32.23144531 12.68818359 -30.5546875 12.81640625 C-29.71164063 12.87699219 -28.86859375 12.93757812 -28 13 C-28 12.34 -28 11.68 -28 11 C-29.65 10.34 -31.3 9.68 -33 9 C-33 5 -33 5 -31.64453125 3.3671875 C-30.73767578 2.62855469 -30.73767578 2.62855469 -29.8125 1.875 C-29.22082031 1.37742188 -28.62914062 0.87984375 -28.01953125 0.3671875 C-19.89740528 -5.13135039 -8.5597655 -4.26603199 0 0 Z " fill="#3BAA35" transform="translate(169,177)"/>
<path d="M0 0 C2.31 7.26 4.62 14.52 7 22 C8.90389849 19.14415227 9.69462177 17.0688238 10.625 13.8125 C10.88539063 12.91144531 11.14578125 12.01039063 11.4140625 11.08203125 C11.60742188 10.39496094 11.80078125 9.70789063 12 9 C15.58454785 12.21690192 17.67051024 14.12629724 18 19 C17.00390625 22.48046875 17.00390625 22.48046875 15.5625 26.1875 C13.71337214 30.47942759 13.71337214 30.47942759 13 35 C13.53109375 34.22914063 14.0621875 33.45828125 14.609375 32.6640625 C15.66898438 31.15972656 15.66898438 31.15972656 16.75 29.625 C17.44609375 28.62726563 18.1421875 27.62953125 18.859375 26.6015625 C20.86722376 24.16136674 22.09043174 23.08781156 25 22 C26.32 22.99 27.64 23.98 29 25 C27.59691515 28.0744065 25.90409642 30.46691085 23.75 33.0625 C16.57662427 42.13785062 16.57662427 42.13785062 14 53 C14.65226562 52.52949219 15.30453125 52.05898438 15.9765625 51.57421875 C28.01242236 43 28.01242236 43 32 43 C32 43.66 32 44.32 32 45 C30.85079284 46.02383911 29.65340952 46.99384347 28.4375 47.9375 C20.13359968 55.00683815 13.73175625 66.16415375 12 77 C11.52389977 84.20793597 11.98937344 91.05879171 14 98 C14.28746094 99.10214844 14.57492188 100.20429688 14.87109375 101.33984375 C16.98387156 107.64835653 16.98387156 107.64835653 21.78271484 111.99804688 C26.05625528 113.67025739 30.48767875 114.6176481 34.97216797 115.54248047 C37.69440134 116.15667085 40.22769748 117.08106337 42.8125 118.125 C43.54082031 118.41632813 44.26914063 118.70765625 45.01953125 119.0078125 C47 120 47 120 51 123 C19.65 123 -11.7 123 -44 123 C-40.89313599 119.89313599 -39.44634777 119.26243342 -35.375 118 C-33.76818359 117.49339844 -33.76818359 117.49339844 -32.12890625 116.9765625 C-31.09636719 116.65429688 -30.06382813 116.33203125 -29 116 C-27.43640243 115.46150984 -25.87376888 114.92020501 -24.3125 114.375 C-19.94205427 112.91018028 -15.51070627 111.92438483 -11 111 C-9.3648148 101.50642762 -8.68025446 92.37596139 -8.73925781 82.76635742 C-8.75008307 80.67142421 -8.73923087 78.57733116 -8.7265625 76.48242188 C-8.71317671 66.12067108 -9.67032068 57.90404669 -14.4375 48.6875 C-15.03433594 47.51574219 -15.63117188 46.34398437 -16.24609375 45.13671875 C-17.87351235 42.06167165 -17.87351235 42.06167165 -19.72265625 39.70703125 C-21 38 -21 38 -21 36 C-19 34.375 -19 34.375 -17 33 C-13.01159848 34.23065542 -11.69304356 36.79793031 -9.8046875 40.36132812 C-9.45664063 41.04646484 -9.10859375 41.73160156 -8.75 42.4375 C-8.38648438 43.11876953 -8.02296875 43.80003906 -7.6484375 44.50195312 C-5 49.58476269 -5 49.58476269 -5 53 C-4.34 53 -3.68 53 -3 53 C-2.71125 52.071875 -2.4225 51.14375 -2.125 50.1875 C-1 47 -1 47 1 44 C3.03576654 33.24258099 -1.1276969 19.11328754 -5.1640625 9.1171875 C-6 7 -6 7 -6 3 C-2.78571429 0 -2.78571429 0 0 0 Z " fill="#AA6D3A" transform="translate(155,237)"/>
<path d="M0 0 C1.52179115 -0.00472824 1.52179115 -0.00472824 3.07432556 -0.009552 C4.73051659 -0.00651566 4.73051659 -0.00651566 6.42016602 -0.00341797 C8.10892601 -0.00485306 8.10892601 -0.00485306 9.83180237 -0.00631714 C12.21843522 -0.0069992 14.60506991 -0.00514311 16.99169922 -0.00097656 C20.65474603 0.00436634 24.31766995 -0.00091814 27.98071289 -0.00732422 C30.2938642 -0.00666334 32.60701544 -0.00538199 34.92016602 -0.00341797 C36.02226913 -0.0054422 37.12437225 -0.00746643 38.25987244 -0.009552 C39.78639183 -0.00482376 39.78639183 -0.00482376 41.34375 0 C42.24230209 0.00079559 43.14085419 0.00159119 44.06663513 0.00241089 C46.23657227 0.12939453 46.23657227 0.12939453 48.23657227 1.12939453 C48.28715558 8.35592673 48.32225638 15.58241352 48.34643555 22.80908203 C48.3565121 25.26906032 48.37017358 27.72902659 48.38745117 30.18896484 C48.41162687 33.71861738 48.42303867 37.248112 48.43188477 40.77783203 C48.44220734 41.8830722 48.45252991 42.98831238 48.46316528 44.12704468 C48.46339188 45.65840561 48.46339188 45.65840561 48.46362305 47.22070312 C48.46806427 48.12227142 48.47250549 49.02383972 48.4770813 49.95272827 C48.23657227 52.12939453 48.23657227 52.12939453 46.23657227 54.12939453 C43.49171634 54.27447148 40.85176684 54.31591876 38.11157227 54.25439453 C37.3574707 54.24537109 36.60336914 54.23634766 35.82641602 54.22705078 C33.96299972 54.20346323 32.09974634 54.16759172 30.23657227 54.12939453 C30.41833008 54.79841797 30.60008789 55.46744141 30.78735352 56.15673828 C32.62374122 63.17268104 34.03042211 70.19427016 35.23388672 77.34008789 C35.90436224 81.36171435 35.90436224 81.36171435 36.81860352 85.33251953 C37.33557032 87.55499366 37.33257975 89.60088556 37.29907227 91.87939453 C37.29004883 92.67861328 37.28102539 93.47783203 37.27172852 94.30126953 C37.26012695 94.90455078 37.24852539 95.50783203 37.23657227 96.12939453 C32.36157227 95.25439453 32.36157227 95.25439453 31.23657227 94.12939453 C30.64864761 91.43712864 30.1118437 88.75170265 29.60766602 86.04345703 C29.45370865 85.23073334 29.29975128 84.41800964 29.14112854 83.58065796 C28.81567382 81.85767456 28.49215727 80.13432413 28.17041016 78.41064453 C27.67729685 75.77165153 27.17714709 73.13406465 26.67602539 70.49658203 C26.36115029 68.82478645 26.0466837 67.15291387 25.73266602 65.48095703 C25.50769691 64.29489365 25.50769691 64.29489365 25.27818298 63.08486938 C24.7155507 60.05504353 24.23657227 57.21838367 24.23657227 54.12939453 C22.25657227 54.12939453 20.27657227 54.12939453 18.23657227 54.12939453 C18.11540039 54.87962891 17.99422852 55.62986328 17.86938477 56.40283203 C16.78792102 63.00807985 15.59936528 69.57638985 14.23657227 76.12939453 C11.26657227 77.11939453 11.26657227 77.11939453 8.23657227 78.12939453 C8.90475063 72.4206862 9.77491705 66.7842994 10.79907227 61.12939453 C10.93764648 60.35466797 11.0762207 59.57994141 11.21899414 58.78173828 C11.55633347 56.89729098 11.89618591 55.01329384 12.23657227 53.12939453 C11.02098633 53.14099609 9.80540039 53.15259766 8.55297852 53.16455078 C6.96834463 53.17392731 5.38370909 53.18302766 3.79907227 53.19189453 C2.99663086 53.20027344 2.19418945 53.20865234 1.36743164 53.21728516 C-0.67637994 53.22590883 -2.72026675 53.18167603 -4.76342773 53.12939453 C-5.76342773 52.12939453 -5.76342773 52.12939453 -6.07592773 48.81689453 C-5.76342773 45.12939453 -5.76342773 45.12939453 -3.88842773 42.69189453 C-1.76342773 41.12939453 -1.76342773 41.12939453 0.23657227 41.12939453 C0.23657227 43.10939453 0.23657227 45.08939453 0.23657227 47.12939453 C14.09657227 47.12939453 27.95657227 47.12939453 42.23657227 47.12939453 C42.23657227 33.59939453 42.23657227 20.06939453 42.23657227 6.12939453 C28.04657227 6.12939453 13.85657227 6.12939453 -0.76342773 6.12939453 C-0.76342773 10.74939453 -0.76342773 15.36939453 -0.76342773 20.12939453 C-2.41342773 21.11939453 -4.06342773 22.10939453 -5.76342773 23.12939453 C-5.79230285 19.48357766 -5.81018358 15.8377899 -5.82592773 12.19189453 C-5.83430664 11.15097656 -5.84268555 10.11005859 -5.85131836 9.03759766 C-5.85615234 7.55356445 -5.85615234 7.55356445 -5.86108398 6.03955078 C-5.8663208 5.12310791 -5.87155762 4.20666504 -5.87695312 3.26245117 C-5.66284666 -0.76044808 -3.50498392 0.00310612 0 0 Z " fill="#161617" transform="translate(304.763427734375,221.87060546875)"/>
<path d="M0 0 C5.25628174 3.6905808 10.59111847 8.96423117 12.9375 15.0625 C13.61125822 20.24887141 13.59675549 24.69327706 11.3125 29.4375 C6.26096821 35.02077197 1.81976265 38.54486498 -5.8125 39.5625 C-11.29083303 39.37644341 -15.12062382 36.69222024 -19.0625 33.0625 C-24.10241117 27.22572402 -26.07069172 21.60896888 -25.64453125 13.8984375 C-24.41403735 7.90287662 -20.73668851 3.91802872 -15.75 0.5625 C-10.19109522 -1.6987494 -5.71889186 -1.75068118 0 0 Z " fill="#F5F6FE" transform="translate(117.0625,61.9375)"/>
<path d="M0 0 C3.76818431 0.65184231 6.43980354 2.37270283 9.625 4.4375 C10.58664063 5.05496094 11.54828125 5.67242187 12.5390625 6.30859375 C15 8 15 8 17 10 C17.87278382 15.66742738 17.02341105 20.08695705 14 25 C13.34 25 12.68 25 12 25 C11.67 27.64 11.34 30.28 11 33 C13.13237451 32.2062056 13.13237451 32.2062056 13.7109375 30.29296875 C14.03964844 29.25076172 14.03964844 29.25076172 14.375 28.1875 C15.6825614 24.60619883 16.64469998 22.08572704 20 20 C26.37396964 20 31.35535303 22.19074283 37 25 C35.09269286 30.40403689 32.3495622 36.39751028 27 39 C23.98236972 39.23534378 21.01961234 39.1742084 18 39 C17.34 37.68 16.68 36.36 16 35 C14.02 35.99 12.04 36.98 10 38 C10 42.29 10 46.58 10 51 C8.515 50.505 8.515 50.505 7 50 C6.26953125 47.93359375 6.26953125 47.93359375 5.8125 45.4375 C5.57466797 44.19806641 5.57466797 44.19806641 5.33203125 42.93359375 C5.22246094 42.29550781 5.11289063 41.65742187 5 41 C2.95983979 40.83006587 2.95983979 40.83006587 1.3125 42 C-1.98628266 43.42650061 -4.44052558 43.37468152 -8 43 C-12.22805911 40.24257014 -14.16354625 37.39502159 -16.3125 32.875 C-16.82425781 31.82054688 -17.33601562 30.76609375 -17.86328125 29.6796875 C-19 27 -19 27 -19 25 C-14.6065791 24.2011962 -10.27746956 23.83505713 -5.8125 23.6875 C-4.30623047 23.63142578 -4.30623047 23.63142578 -2.76953125 23.57421875 C0.76381086 24.11742649 1.8809765 25.16475643 4 28 C4.5390625 30.10546875 4.5390625 30.10546875 4.625 32.1875 C4.74875 33.445625 4.8725 34.70375 5 36 C5.66 36.33 6.32 36.66 7 37 C7.33 33.37 7.66 29.74 8 26 C6.35 25.67 4.7 25.34 3 25 C-1.63157895 21.73684211 -1.63157895 21.73684211 -3 19 C-3.67799052 12.10275024 -2.58992747 6.38232127 0 0 Z " fill="#40463C" transform="translate(235,67)"/>
<path d="M0 0 C2.81826238 1.12626692 4.18490338 2.51376797 6.12109375 4.84765625 C6.60211182 7.37872314 6.60211182 7.37872314 6.57519531 10.25878906 C6.57474213 11.88001678 6.57474213 11.88001678 6.57427979 13.53399658 C6.55363464 14.69453552 6.5329895 15.85507446 6.51171875 17.05078125 C6.50605896 18.24370789 6.50039917 19.43663452 6.49456787 20.66571045 C6.47217301 24.47676681 6.42196804 28.28688392 6.37109375 32.09765625 C6.3510329 34.68097601 6.33278141 37.2643105 6.31640625 39.84765625 C6.27229786 46.18131019 6.20535353 52.51441612 6.12109375 58.84765625 C4.47109375 58.18765625 2.82109375 57.52765625 1.12109375 56.84765625 C0.79109375 52.22765625 0.46109375 47.60765625 0.12109375 42.84765625 C-1.36390625 42.35265625 -1.36390625 42.35265625 -2.87890625 41.84765625 C-2.87890625 46.79765625 -2.87890625 51.74765625 -2.87890625 56.84765625 C-4.85890625 57.50765625 -6.83890625 58.16765625 -8.87890625 58.84765625 C-9.86890625 59.50765625 -10.85890625 60.16765625 -11.87890625 60.84765625 C-11.87890625 51.60765625 -11.87890625 42.36765625 -11.87890625 32.84765625 C-9.56890625 32.18765625 -7.25890625 31.52765625 -4.87890625 30.84765625 C-3.32866161 27.74716697 -3.5889861 25.26871407 -3.87890625 21.84765625 C-5.77119891 19.21141191 -5.77119891 19.21141191 -7.87890625 16.84765625 C-8.62890625 14.03515625 -8.62890625 14.03515625 -8.87890625 11.84765625 C-8.87890625 12.50765625 -8.87890625 13.16765625 -8.87890625 13.84765625 C-9.86890625 14.34265625 -9.86890625 14.34265625 -10.87890625 14.84765625 C-10.43823858 17.82216299 -9.78294428 18.95773027 -7.75390625 21.28515625 C-5.87890625 23.84765625 -5.87890625 23.84765625 -6.12890625 26.66015625 C-6.37640625 27.38203125 -6.62390625 28.10390625 -6.87890625 28.84765625 C-8.19890625 29.17765625 -9.51890625 29.50765625 -10.87890625 29.84765625 C-12.37295441 28.32040702 -13.84862232 26.77516405 -15.31640625 25.22265625 C-16.14011719 24.36414063 -16.96382813 23.505625 -17.8125 22.62109375 C-20.20671075 19.4076918 -21.07167457 17.86535382 -20.87890625 13.84765625 C-19.30889524 11.1708782 -17.29084152 9.11920129 -15.06640625 6.97265625 C-14.4741626 6.39201416 -13.88191895 5.81137207 -13.27172852 5.21313477 C-9.04472931 1.33189307 -5.91153372 -0.54828728 0 0 Z " fill="#0A0A0A" transform="translate(282.87890625,242.15234375)"/>
<path d="M0 0 C5.61 0 11.22 0 17 0 C17 0.66 17 1.32 17 2 C16.01 2 15.02 2 14 2 C14 7.61 14 13.22 14 19 C17.63 19 21.26 19 25 19 C25 13.39 25 7.78 25 2 C24.01 1.67 23.02 1.34 22 1 C27.61 1 33.22 1 39 1 C39 1.66 39 2.32 39 3 C37.68 3 36.36 3 35 3 C35 14.88 35 26.76 35 39 C35.99 39.495 35.99 39.495 37 40 C31.39 40 25.78 40 20 40 C20 39.34 20 38.68 20 38 C21.32 38 22.64 38 24 38 C24 32.06 24 26.12 24 20 C20.37 20 16.74 20 13 20 C13 25.94 13 31.88 13 38 C13.99 38.33 14.98 38.66 16 39 C10.39 39 4.78 39 -1 39 C-1 38.34 -1 37.68 -1 37 C-0.01 37 0.98 37 2 37 C1.98839844 36.32839844 1.97679687 35.65679687 1.96484375 34.96484375 C1.86244169 23.62747239 2.45446325 12.32133854 3 1 C2.01 0.67 1.02 0.34 0 0 Z " fill="#EFF0FD" transform="translate(242,14)"/>
<path d="M0 0 C3.78155989 1.26051996 4.25618367 2.56446606 6.25 5.9375 C6.79140625 6.83339844 7.3328125 7.72929688 7.890625 8.65234375 C8.25671875 9.42707031 8.6228125 10.20179687 9 11 C7.55350197 13.89299606 5.45295679 14.55202964 2.625 16.0625 C1.64789063 16.58972656 0.67078125 17.11695313 -0.3359375 17.66015625 C-3 19 -3 19 -6 20 C-4.35 22.97 -2.7 25.94 -1 29 C-0.24074219 28.57847656 0.51851563 28.15695313 1.30078125 27.72265625 C2.79158203 26.90087891 2.79158203 26.90087891 4.3125 26.0625 C5.29863281 25.51722656 6.28476562 24.97195312 7.30078125 24.41015625 C10 23 10 23 13 22 C12.505 20.02 12.505 20.02 12 18 C15.78699616 21.36621881 18.8272631 25.41641804 21 30 C20.67 30.66 20.34 31.32 20 32 C18.98873047 32.14695312 18.98873047 32.14695312 17.95703125 32.296875 C13.60122109 33.33260265 10.37062759 35.7686669 6.6875 38.25 C5.23347688 39.21415116 3.77905122 40.17769553 2.32421875 41.140625 C1.61185059 41.61564453 0.89948242 42.09066406 0.16552734 42.58007812 C-2.63932113 44.41919861 -5.49299606 46.17299623 -8.36010742 47.91308594 C-10.16107351 49.02857494 -10.16107351 49.02857494 -12 51 C-14.64 47.04 -17.28 43.08 -20 39 C-19.01 39 -18.02 39 -17 39 C-15.13311819 38.13122518 -13.30239823 37.18317967 -11.5 36.1875 C-10.5409375 35.66542969 -9.581875 35.14335937 -8.59375 34.60546875 C-6.35909104 33.2222687 -4.73336176 31.95003198 -3 30 C-3.66 29.05125 -4.32 28.1025 -5 27.125 C-7 24 -7 24 -7 22 C-12.28 25.3 -17.56 28.6 -23 32 C-25.62196431 29.37803569 -26.97572835 27.5047228 -28.6875 24.3125 C-29.12449219 23.50425781 -29.56148438 22.69601563 -30.01171875 21.86328125 C-30.33785156 21.24839844 -30.66398437 20.63351563 -31 20 C-30.01 20.33 -29.02 20.66 -28 21 C-25.86662664 20.11866734 -25.86662664 20.11866734 -23.6484375 18.68359375 C-22.37033203 17.90725586 -22.37033203 17.90725586 -21.06640625 17.11523438 C-19.73416016 16.28475586 -19.73416016 16.28475586 -18.375 15.4375 C-17.51003906 14.91091797 -16.64507812 14.38433594 -15.75390625 13.84179688 C-10.07623791 10.36454422 -4.51246748 6.73287182 1 3 C0.67 2.01 0.34 1.02 0 0 Z " fill="#F5F5FE" transform="translate(451,116)"/>
<path d="M0 0 C1.14888637 2.29777274 1.52074024 4.3513978 2 6.875 C2.58811401 9.95340925 3.2388442 12.95537682 4 16 C13.57 16.99 23.14 17.98 33 19 C31.31482096 23.2129476 29.56523798 26.32315889 27 30 C26.38253906 29.9278125 25.76507813 29.855625 25.12890625 29.78125 C19.37891613 29.1511141 13.78353441 28.90671719 8 29 C9.92989218 30.19982444 11.86919228 31.38452818 13.8125 32.5625 C14.89144531 33.22378906 15.97039063 33.88507813 17.08203125 34.56640625 C19.95899345 36.40375227 19.95899345 36.40375227 23 35 C21.6744419 38.62276315 20.05653045 41.63505348 17.875 44.8125 C17.06675781 45.99779297 17.06675781 45.99779297 16.2421875 47.20703125 C15.83226562 47.79871094 15.42234375 48.39039063 15 49 C14.67 48.01 14.34 47.02 14 46 C11.66664859 44.21360139 11.66664859 44.21360139 8.7578125 42.49609375 C7.15873047 41.50899414 7.15873047 41.50899414 5.52734375 40.50195312 C4.40457031 39.82068359 3.28179687 39.13941406 2.125 38.4375 C-0.080799 37.08214489 -2.2865312 35.72668107 -4.4921875 34.37109375 C-5.47558105 33.77224365 -6.45897461 33.17339355 -7.47216797 32.55639648 C-9.33789721 31.40765938 -11.17696612 30.21535592 -13 29 C-14.65 29 -16.3 29 -18 29 C-15.36 24.38 -12.72 19.76 -10 15 C-9.34 15.33 -8.68 15.66 -8 16 C-8.33 16.99 -8.66 17.98 -9 19 C-8.34 19.226875 -7.68 19.45375 -7 19.6875 C-3.07265467 21.40571358 0.41260178 23.66774607 4 26 C2.43247063 19.63583076 0.85735533 13.28643343 -1 7 C-1.99 7.33 -2.98 7.66 -4 8 C-2.87548273 5.0280615 -1.77706209 2.66559313 0 0 Z " fill="#F4F4FE" transform="translate(46,119)"/>
<path d="M0 0 C1.78377293 0.95721929 3.55721674 1.93187629 5.33032227 2.90869141 C11.42322442 6.10277151 17.00422986 6.5785856 23.7265625 5.421875 C24.97714301 4.93178494 26.2202602 4.42240052 27.45703125 3.8984375 C32.34521693 1.95784876 36.96604671 2.0503728 42.1640625 2.171875 C43.52821289 2.17960937 43.52821289 2.17960937 44.91992188 2.1875 C51.57167068 2.26698318 51.57167068 2.26698318 52.7265625 3.421875 C53 5.81640625 53 5.81640625 52.7265625 8.421875 C51.390625 9.87109375 51.390625 9.87109375 49.3515625 11.109375 C48.54332031 11.60308594 47.73507812 12.09679687 46.90234375 12.60546875 C45.85433594 13.20488281 44.80632812 13.80429688 43.7265625 14.421875 C43.03481934 14.82164551 42.34307617 15.22141602 41.63037109 15.63330078 C39.27297129 16.99104688 36.90816738 18.33466291 34.5390625 19.671875 C33.7670752 20.10846436 32.99508789 20.54505371 32.19970703 20.99487305 C22.0858352 26.59661999 13.37629422 28.14891874 2.03686523 24.9855957 C1.39821533 24.79956787 0.75956543 24.61354004 0.1015625 24.421875 C-8.42646136 21.9541544 -15.60868678 21.91496183 -24.2734375 23.421875 C-24.6034375 22.431875 -24.9334375 21.441875 -25.2734375 20.421875 C-16.01010699 18.29586472 -9.1240278 17.79571464 0.0390625 20.421875 C14.49032089 24.5105063 23.54507404 21.39106691 36.2890625 14.421875 C36.90950439 14.08994141 37.52994629 13.75800781 38.16918945 13.41601562 C41.63618027 11.4795591 41.63618027 11.4795591 43.62890625 8.171875 C43.66113281 7.594375 43.69335938 7.016875 43.7265625 6.421875 C42.6746875 6.6384375 42.6746875 6.6384375 41.6015625 6.859375 C38.65100109 7.43665875 35.69386099 7.93882641 32.7265625 8.421875 C32.7265625 8.751875 32.7265625 9.081875 32.7265625 9.421875 C32.5390625 11.796875 32.5390625 11.796875 31.7265625 14.421875 C24.62253562 19.74989516 17.33498446 20.15068618 8.7265625 19.421875 C6.08007283 18.6774153 4.14096037 17.76944591 1.7265625 16.421875 C1.7265625 15.431875 1.7265625 14.441875 1.7265625 13.421875 C2.54447266 13.6384375 2.54447266 13.6384375 3.37890625 13.859375 C8.97616174 15.23716097 13.96601995 15.60474937 19.7265625 15.421875 C20.2215625 13.936875 20.2215625 13.936875 20.7265625 12.421875 C23.2890625 11.234375 23.2890625 11.234375 25.7265625 10.421875 C24.72238281 10.43089844 23.71820313 10.43992187 22.68359375 10.44921875 C13.48039524 10.32136512 7.72496455 8.77981076 -0.31640625 3.9609375 C-4.77771441 1.63893563 -8.39449125 1.39100087 -13.2734375 2.421875 C-15.98029022 3.33060413 -18.55310135 4.34891062 -21.14453125 5.546875 C-23.2734375 6.421875 -23.2734375 6.421875 -26.2734375 6.421875 C-26.2734375 5.431875 -26.2734375 4.441875 -26.2734375 3.421875 C-8.80459966 -4.2446996 -8.80459966 -4.2446996 0 0 Z " fill="#434343" transform="translate(227.2734375,114.578125)"/>
<path d="M0 0 C0.66 0.33 1.32 0.66 2 1 C2.6328125 3.06640625 2.6328125 3.06640625 3.125 5.5625 C3.29257813 6.38878906 3.46015625 7.21507812 3.6328125 8.06640625 C3.75398438 8.70449219 3.87515625 9.34257813 4 10 C3.27296875 9.45859375 3.27296875 9.45859375 2.53125 8.90625 C-2.57205524 5.37319253 -5.79093406 4.15809275 -12 5 C-14.17500647 6.00488226 -14.17500647 6.00488226 -15 8 C-14.75794651 11.31818985 -14.75794651 11.31818985 -13 14 C-9.6919318 14.20392201 -6.39117412 14.3462654 -3.078125 14.4296875 C2.42987541 14.67268752 5.62045473 15.96038977 9.75 19.5 C12.60617912 22.92741494 12.29222982 26.76266759 12 31 C10.17823921 35.12293232 7.80193054 37.60313075 4 40 C-0.58668344 41.47607812 -5.16956272 42.31164111 -10 42 C-10.33 42.66 -10.66 43.32 -11 44 C-11.6708712 42.3767313 -12.33657029 40.75132422 -13 39.125 C-13.37125 38.22007813 -13.7425 37.31515625 -14.125 36.3828125 C-15 34 -15 34 -15 32 C-12.41161241 33.24242604 -10.19862984 34.54995992 -7.8125 36.1875 C-4.05221092 38.37693238 -1.13600611 38.1500043 3.08203125 37.5546875 C5.21754898 37.10433189 5.21754898 37.10433189 7 35 C6.83557723 31.93008319 6.83557723 31.93008319 6 29 C2.26119007 27.13059503 -2.2972901 27.64330104 -6.421875 27.4765625 C-11.60590251 26.78611342 -14.88512765 25.20063177 -18.4375 21.375 C-20.50521919 16.90872656 -20.35722991 13.68546886 -19 9 C-16.78821202 5.41537811 -14.84874887 3.59448167 -11 2 C-8.45703125 1.62109375 -8.45703125 1.62109375 -5.8125 1.4375 C-2.59996202 1.45010753 -2.59996202 1.45010753 0 0 Z " fill="#F5F5FE" transform="translate(186,23)"/>
<path d="M0 0 C4.45818401 2.27115034 7.0117331 5.05121874 10 9 C10.66 9.33 11.32 9.66 12 10 C10.67585611 13.97243168 9.0120432 16.13488574 6 19 C5.93941406 18.16855469 5.87882812 17.33710937 5.81640625 16.48046875 C5.73261719 15.39378906 5.64882813 14.30710937 5.5625 13.1875 C5.48128906 12.10855469 5.40007812 11.02960938 5.31640625 9.91796875 C5.09787539 6.94010095 5.09787539 6.94010095 4 4 C2.52168779 3.80587819 1.04230684 3.61987869 -0.4375 3.4375 C-1.26121094 3.33308594 -2.08492188 3.22867188 -2.93359375 3.12109375 C-3.95646484 3.06115234 -3.95646484 3.06115234 -5 3 C-5.33 3.33 -5.66 3.66 -6 4 C-6 10.36846764 -3.15746437 14.1780826 0.50390625 19.25390625 C2.26398988 22.48455584 2.41637978 24.37154759 2 28 C-0.6188933 32.60563994 -2.90593432 36.30197811 -8 38 C-13.7659698 38.54395942 -16.51134859 37.62912242 -21 34 C-23.1429822 32.07769102 -25.05094253 30.134682 -27 28 C-27 27.34 -27 26.68 -27 26 C-27.99 25.67 -28.98 25.34 -30 25 C-29.02471263 23.66382648 -28.04466681 22.3311249 -27.0625 21 C-26.24458984 19.88625 -26.24458984 19.88625 -25.41015625 18.75 C-24.71212891 17.88375 -24.71212891 17.88375 -24 17 C-23.67 17 -23.34 17 -23 17 C-22.91363281 17.88042969 -22.82726562 18.76085937 -22.73828125 19.66796875 C-22.14387104 27.04309379 -22.14387104 27.04309379 -18.6875 33.3125 C-15.7471894 35.15874154 -14.39282515 35.73358382 -11 35 C-8.70763415 32.20898498 -8.70763415 32.20898498 -9.1484375 29.18359375 C-10.10776313 25.59712409 -11.58528631 23.15457593 -13.625 20.0625 C-15.85673678 16.34753074 -16.96802613 14.49559498 -17.25 10.125 C-13.85992904 1.64982261 -8.8835952 -1.07861527 0 0 Z " fill="#F4F4FE" transform="translate(401,64)"/>
<path d="M0 0 C3.58271776 -0.1743959 7.16434602 -0.28087658 10.75 -0.375 C11.76578125 -0.42527344 12.7815625 -0.47554688 13.828125 -0.52734375 C16.66676339 -0.58336951 19.21514196 -0.5588525 22 0 C24.59375 2.76171875 24.59375 2.76171875 26 6 C26.34546875 6.73605469 26.6909375 7.47210938 27.046875 8.23046875 C27.39492188 9.19919922 27.39492188 9.19919922 27.75 10.1875 C27.99234375 10.84105469 28.2346875 11.49460937 28.484375 12.16796875 C29 14 29 14 29 17 C17.78 17 6.56 17 -5 17 C-6.23400845 12.06396619 -5.25683943 10.72824374 -3.0625 6.25 C-2.21365234 4.49429687 -2.21365234 4.49429687 -1.34765625 2.703125 C-0.90292969 1.81109375 -0.45820313 0.9190625 0 0 Z " fill="#0F0F0F" transform="translate(346,325)"/>
<path d="M0 0 C0.96744141 -0.03287109 1.93488281 -0.06574219 2.93164062 -0.09960938 C3.86041016 -0.10669922 4.78917969 -0.11378906 5.74609375 -0.12109375 C6.59743896 -0.13454834 7.44878418 -0.14800293 8.32592773 -0.16186523 C10.5625 0.4375 10.5625 0.4375 13.5625 5.4375 C14.8825 9.0675 16.2025 12.6975 17.5625 16.4375 C6.0125 16.4375 -5.5375 16.4375 -17.4375 16.4375 C-16.63438028 13.22502112 -15.71171944 10.37609254 -14.5 7.3125 C-14.16097656 6.44367188 -13.82195312 5.57484375 -13.47265625 4.6796875 C-10.72987854 -1.26127253 -5.7620064 0.03441145 0 0 Z " fill="#060606" transform="translate(319.4375,324.5625)"/>
<path d="M0 0 C2.66015625 2.37109375 2.66015625 2.37109375 5.0625 5.4375 C5.48515137 5.9752002 5.90780273 6.51290039 6.34326172 7.06689453 C15.42431834 18.83375085 15.42431834 18.83375085 16.625 25.4375 C16 28 16 28 14.375 29.9375 C11.12960867 31.3893856 9.40882445 30.91923356 6 30 C2.52854703 27.09243787 -0.18028359 23.53319751 -3 20 C-3.69222656 19.14019531 -4.38445312 18.28039062 -5.09765625 17.39453125 C-9.01440738 12.20704773 -10.87900409 8.53377898 -11 2 C-7.35731019 -1.64268981 -4.83781731 -1.22750589 0 0 Z " fill="#0709E8" transform="translate(108,66)"/>
<path d="M0 0 C0.90298828 -0.05800781 1.80597656 -0.11601562 2.73632812 -0.17578125 C5.4398246 -0.22742777 7.59502894 -0.15561371 10.1875 0.625 C12.55684687 2.99916402 13.84835311 5.57723794 15.1875 8.625 C15.74401245 9.62152588 15.74401245 9.62152588 16.31176758 10.63818359 C17.1875 12.625 17.1875 12.625 17.1875 16.625 C5.9675 16.625 -5.2525 16.625 -16.8125 16.625 C-13.72047461 4.25689844 -12.39198266 0.26198695 0 0 Z " fill="#060606" transform="translate(280.8125,324.375)"/>
<path d="M0 0 C10.55808656 3.07517084 10.55808656 3.07517084 15 5 C14.55543457 5.53302734 14.11086914 6.06605469 13.65283203 6.61523438 C11.74428753 9.36895116 10.70576498 12.01006501 9.5546875 15.15625 C9.11769531 16.34347656 8.68070312 17.53070313 8.23046875 18.75390625 C7.55951172 20.60822266 7.55951172 20.60822266 6.875 22.5 C6.41996094 23.73621094 5.96492188 24.97242188 5.49609375 26.24609375 C2.94900927 33.03080014 2.94900927 33.03080014 1 40 C1.66 40 2.32 40 3 40 C2.67 40.66 2.34 41.32 2 42 C-2.95 40.02 -7.9 38.04 -13 36 C-11.02 35.505 -11.02 35.505 -9 35 C-8.88358154 34.13721436 -8.76716309 33.27442871 -8.6472168 32.38549805 C-7.99061432 28.95090485 -6.97080682 26.06265111 -5.64453125 22.83203125 C-5.18755859 21.69185547 -4.73058594 20.55167969 -4.25976562 19.37695312 C-3.2891756 16.9864986 -2.31253676 14.59849177 -1.33007812 12.21289062 C-0.87697266 11.07658203 -0.42386719 9.94027344 0.04296875 8.76953125 C0.46602295 7.73417236 0.88907715 6.69881348 1.32495117 5.63208008 C1.54771729 4.76349365 1.7704834 3.89490723 2 3 C1.34 2.01 0.68 1.02 0 0 Z " fill="#F4F4FE" transform="translate(331,28)"/>
<path d="M0 0 C3.07580039 0.6835112 4.80616034 2.17331873 6.93359375 4.4296875 C8.15122106 8.08256943 8.32435226 10.58722886 7.93359375 14.4296875 C5.49149871 18.42584302 3.94062335 20.08180455 -0.50390625 21.6171875 C-5.3893243 21.36006023 -6.69095032 19.88551143 -10.06640625 16.4296875 C-11.81106073 12.94037854 -11.63091177 9.23681773 -11.06640625 5.4296875 C-8.06450726 0.83302967 -5.28408166 -0.33961962 0 0 Z " fill="#0B0B0B" transform="translate(359.06640625,301.5703125)"/>
<path d="M0 0 C3.3125 0.375 3.3125 0.375 5.77734375 2.84765625 C10.21730533 6.73201872 15.5636337 6.15633325 21.1875 6.1875 C22.79238281 6.22520508 22.79238281 6.22520508 24.4296875 6.26367188 C27.05766165 6.32233201 29.68397825 6.3587667 32.3125 6.375 C31.6525 6.705 30.9925 7.035 30.3125 7.375 C30.3125 11.335 30.3125 15.295 30.3125 19.375 C29.6525 19.375 28.9925 19.375 28.3125 19.375 C28.3125 15.415 28.3125 11.455 28.3125 7.375 C26.9925 7.375 25.6725 7.375 24.3125 7.375 C24.3125 11.335 24.3125 15.295 24.3125 19.375 C23.3225 19.375 22.3325 19.375 21.3125 19.375 C19.7965625 19.436875 19.7965625 19.436875 18.25 19.5 C15.3125 19.375 15.3125 19.375 13.3125 17.375 C13.1875 13.75 13.1875 13.75 13.3125 10.375 C14.9625 10.045 16.6125 9.715 18.3125 9.375 C18.3125 8.715 18.3125 8.055 18.3125 7.375 C15.6725 7.375 13.0325 7.375 10.3125 7.375 C10.3125 11.335 10.3125 15.295 10.3125 19.375 C9.6525 19.375 8.9925 19.375 8.3125 19.375 C8.3125 18.385 8.3125 17.395 8.3125 16.375 C6.3325 16.375 4.3525 16.375 2.3125 16.375 C1.6875 14 1.6875 14 1.3125 11.375 C1.9725 10.715 2.6325 10.055 3.3125 9.375 C4.6325 9.375 5.9525 9.375 7.3125 9.375 C7.3125 10.035 7.3125 10.695 7.3125 11.375 C5.9925 11.375 4.6725 11.375 3.3125 11.375 C3.3125 12.695 3.3125 14.015 3.3125 15.375 C4.6325 15.045 5.9525 14.715 7.3125 14.375 C7.6425 12.065 7.9725 9.755 8.3125 7.375 C5.0125 7.375 1.7125 7.375 -1.6875 7.375 C-1.6875 11.335 -1.6875 15.295 -1.6875 19.375 C-2.3475 19.375 -3.0075 19.375 -3.6875 19.375 C-3.6875 15.415 -3.6875 11.455 -3.6875 7.375 C-4.3475 7.045 -5.0075 6.715 -5.6875 6.375 C-3.419069 0.4770794 -3.419069 0.4770794 0 0 Z " fill="#131313" transform="translate(151.6875,141.625)"/>
<path d="M0 0 C3.0216321 0.73251687 4.80104733 2.27158096 6.93359375 4.46875 C8.54089368 7.68334986 8.5529023 10.99263103 7.93359375 14.46875 C5.49609375 17.40625 5.49609375 17.40625 2.93359375 19.46875 C2.60359375 19.79875 2.27359375 20.12875 1.93359375 20.46875 C-1.06990321 20.81915798 -3.15881923 21.03168508 -6.06640625 20.46875 C-9.1447639 17.90345196 -10.61014819 16.35361938 -11.54296875 12.5 C-11.81629652 8.75972526 -11.21260461 6.06394764 -9.06640625 2.96875 C-5.69978951 0.16323605 -4.23958901 -0.32057384 0 0 Z " fill="#0B0B0B" transform="translate(321.06640625,301.53125)"/>
<path d="M0 0 C3.94875513 2.45865885 5.66872408 3.98776803 7.125 8.4375 C6.94203289 13.65206255 4.59394296 16.40605704 1 20 C-2.08537497 20.40463934 -4.03930795 20.63402966 -7 20 C-10.0874681 17.42710991 -11.58386894 15.88916134 -12.44140625 11.99609375 C-12.65854308 8.30476763 -12.10708037 6.16775924 -10.125 3.0625 C-6.78220282 -0.18197961 -4.62268262 -0.53338646 0 0 Z " fill="#090909" transform="translate(284,302)"/>
<path d="M0 0 C1.65 0 3.3 0 5 0 C5 0.99 5 1.98 5 3 C4.34 3 3.68 3 3 3 C3 2.34 3 1.68 3 1 C2.34 1 1.68 1 1 1 C1 1.99 1 2.98 1 4 C2.32 4 3.64 4 5 4 C5 4.66 5 5.32 5 6 C4.34 6 3.68 6 3 6 C3 6.99 3 7.98 3 9 C4.32 8.67 5.64 8.34 7 8 C7 5.36 7 2.72 7 0 C18.55 0 30.1 0 42 0 C41.34 0.33 40.68 0.66 40 1 C40 4.96 40 8.92 40 13 C39.34 13 38.68 13 38 13 C38 11.35 38 9.7 38 8 C36.35 8 34.7 8 33 8 C33 8.66 33 9.32 33 10 C32.01 9.67 31.02 9.34 30 9 C30.33 6.36 30.66 3.72 31 1 C29.68 1 28.36 1 27 1 C27 4.96 27 8.92 27 13 C26.34 13 25.68 13 25 13 C25 11.02 25 9.04 25 7 C23.68 7 22.36 7 21 7 C21 7.66 21 8.32 21 9 C20.01 8.67 19.02 8.34 18 8 C18 7.01 18 6.02 18 5 C20.31 5 22.62 5 25 5 C25 3.68 25 2.36 25 1 C21.7 1 18.4 1 15 1 C15 4.96 15 8.92 15 13 C14.34 13 13.68 13 13 13 C13 9.37 13 5.74 13 2 C12.01 2 11.02 2 10 2 C10 5.63 10 9.26 10 13 C9.34 13 8.68 13 8 13 C8 12.01 8 11.02 8 10 C6.02 10.33 4.04 10.66 2 11 C-1.07692308 4.6 -1.07692308 4.6 -0.6875 1.5625 C-0.460625 1.046875 -0.23375 0.53125 0 0 Z " fill="#262626" transform="translate(279,148)"/>
<path d="M0 0 C3.33484448 2.46488505 4.81126715 3.86760291 5.5 8 C4.94048091 11.35711455 4.03538069 13.28615908 2 16 C-1 18 -1 18 -4.4375 17.9375 C-8 17 -8 17 -10.4375 14.875 C-12.40109741 11.26198077 -12.51673305 9.06004538 -12 5 C-9.24755565 0.01938642 -5.45238818 -0.65428658 0 0 Z " fill="#090909" transform="translate(284,222)"/>
<path d="M0 0 C1.65 0 3.3 0 5 0 C5 0.99 5 1.98 5 3 C4.34 3 3.68 3 3 3 C3 2.34 3 1.68 3 1 C2.34 1 1.68 1 1 1 C1 1.99 1 2.98 1 4 C2.32 4 3.64 4 5 4 C5 4.66 5 5.32 5 6 C4.34 6 3.68 6 3 6 C3 6.99 3 7.98 3 9 C4.32 8.67 5.64 8.34 7 8 C7 5.36 7 2.72 7 0 C16.57 0 26.14 0 36 0 C35.34 0.33 34.68 0.66 34 1 C34 4.96 34 8.92 34 13 C33.34 13 32.68 13 32 13 C31.505 11.515 31.505 11.515 31 10 C29.02 10.99 27.04 11.98 25 13 C25.185625 12.360625 25.37125 11.72125 25.5625 11.0625 C25.706875 10.381875 25.85125 9.70125 26 9 C25.67 8.67 25.34 8.34 25 8 C24.95907063 5.66702567 24.95758277 3.33294775 25 1 C23.68 1 22.36 1 21 1 C21 4.96 21 8.92 21 13 C20.34 13 19.68 13 19 13 C19 11.02 19 9.04 19 7 C18.01 7 17.02 7 16 7 C16 7.66 16 8.32 16 9 C14.68 8.67 13.36 8.34 12 8 C12 7.01 12 6.02 12 5 C14.64 5 17.28 5 20 5 C20 3.68 20 2.36 20 1 C16.37 1 12.74 1 9 1 C9 4.96 9 8.92 9 13 C8.67 12.01 8.34 11.02 8 10 C6.02 10.33 4.04 10.66 2 11 C-1.07692308 4.6 -1.07692308 4.6 -0.6875 1.5625 C-0.460625 1.046875 -0.23375 0.53125 0 0 Z " fill="#0C0C0C" transform="translate(242,148)"/>
<path d="M0 0 C4.61396512 1.31827575 8.41313814 2.75474403 12 6 C12.70569101 8.78834007 12.60286962 11.19809166 12 14 C10.5 16.5 10.5 16.5 9 18 C8.34 15.69 7.68 13.38 7 11 C6.01 11 5.02 11 4 11 C4.350625 11.5775 4.70125 12.155 5.0625 12.75 C6.14917407 15.35801776 5.93065133 16.39417629 5 19 C-0.875 15.125 -0.875 15.125 -2 14 C-2.26582874 8.7720347 -1.97153141 4.92882852 0 0 Z " fill="#72C137" transform="translate(237,72)"/>
<path d="M0 0 C3 1 3 1 4.38671875 3.28515625 C4.81597656 4.20167969 5.24523437 5.11820313 5.6875 6.0625 C6.34298828 7.44115234 6.34298828 7.44115234 7.01171875 8.84765625 C7.33785156 9.55792969 7.66398437 10.26820313 8 11 C8.92039062 10.52433594 8.92039062 10.52433594 9.859375 10.0390625 C11.90994021 9.04371515 13.77922017 8.47588139 16 8 C16.680625 9.175625 16.680625 9.175625 17.375 10.375 C21.09558679 14.09558679 24.91344923 14.34962042 30 15 C30 16.32 30 17.64 30 19 C26.29013428 19.28783441 22.70001295 19.45251957 19 19 C16.3125 16.5 16.3125 16.5 15 14 C14.443125 14.309375 13.88625 14.61875 13.3125 14.9375 C10.87459567 16.05761821 8.63775814 16.56037364 6 17 C5.02862921 15.05725842 4.05822765 13.11414687 3.09375 11.16796875 C2.16235906 9.32181885 1.18006316 7.50149474 0.1875 5.6875 C-1 3 -1 3 0 0 Z " fill="#2A2A2A" transform="translate(311,233)"/>
<path d="M0 0 C2.25 0.5 2.25 0.5 3.25 1.5 C3.81062711 5.08673934 3.35381412 6.34736853 1.28125 9.39453125 C0.4459375 10.35746094 -0.389375 11.32039063 -1.25 12.3125 C-2.50296875 13.77623047 -2.50296875 13.77623047 -3.78125 15.26953125 C-4.4309375 16.00558594 -5.080625 16.74164063 -5.75 17.5 C-10.5 16.75 -10.5 16.75 -12.75 14.5 C-12.9453125 12.1171875 -12.9453125 12.1171875 -12.875 9.375 C-12.85695313 8.46492187 -12.83890625 7.55484375 -12.8203125 6.6171875 C-12.79710937 5.91851562 -12.77390625 5.21984375 -12.75 4.5 C-10.275 5.985 -10.275 5.985 -7.75 7.5 C-7.44707031 6.9946875 -7.14414062 6.489375 -6.83203125 5.96875 C-3.37934205 0.61442583 -3.37934205 0.61442583 0 0 Z " fill="#0F0F0F" transform="translate(305.75,245.5)"/>
<path d="M0 0 C2.0625 0.4375 2.0625 0.4375 4 1 C3.01 1.495 3.01 1.495 2 2 C2 2.99 2 3.98 2 5 C2.66 5.66 3.32 6.32 4 7 C3.34 7 2.68 7 2 7 C2 10.96 2 14.92 2 19 C1.34 19 0.68 19 0 19 C0 18.01 0 17.02 0 16 C-1.65 16 -3.3 16 -5 16 C-1.25 14 -1.25 14 1 14 C1 11.69 1 9.38 1 7 C-2.3 7 -5.6 7 -9 7 C-9 10.96 -9 14.92 -9 19 C-9.66 19 -10.32 19 -11 19 C-11 17.35 -11 15.7 -11 14 C-12.98 14 -14.96 14 -17 14 C-16.505 14.45375 -16.01 14.9075 -15.5 15.375 C-14 17 -14 17 -14 19 C-17.35620271 17.61122646 -19.07298728 16.08322035 -21 13 C-21 12.34 -21 11.68 -21 11 C-20.01 11 -19.02 11 -18 11 C-18 9.68 -18 8.36 -18 7 C-19.32 6.67 -20.64 6.34 -22 6 C-14.74 6 -7.48 6 0 6 C-0.33 4.35 -0.66 2.7 -1 1 C-0.67 0.67 -0.34 0.34 0 0 Z " fill="#1C1C1C" transform="translate(236,142)"/>
<path d="M0 0 C4.62 0 9.24 0 14 0 C13.01 0.495 13.01 0.495 12 1 C12 4.96 12 8.92 12 13 C11.34 13 10.68 13 10 13 C10 9.04 10 5.08 10 1 C8.68 1 7.36 1 6 1 C6 4.96 6 8.92 6 13 C5.01 13 4.02 13 3 13 C1.4840625 13.061875 1.4840625 13.061875 -0.0625 13.125 C-3 13 -3 13 -5 11 C-5.125 7.375 -5.125 7.375 -5 4 C-3.35 3.67 -1.7 3.34 0 3 C0 2.01 0 1.02 0 0 Z " fill="#0E0E0E" transform="translate(170,148)"/>
<path d="M0 0 C1.21710339 0.64492062 2.43024278 1.29738164 3.63916016 1.95751953 C8.51234893 4.57937175 12.2847897 5.43982143 17.77172852 5.53442383 C17.77172852 5.86442383 17.77172852 6.19442383 17.77172852 6.53442383 C20.74172852 6.86442383 23.71172852 7.19442383 26.77172852 7.53442383 C26.77172852 7.86442383 26.77172852 8.19442383 26.77172852 8.53442383 C15.26946479 9.29962194 7.56593245 9.31335426 -2.37670898 3.10864258 C-6.76127041 0.68812442 -10.38267494 0.51059617 -15.22827148 1.53442383 C-17.9351242 2.44315295 -20.50793534 3.46145945 -23.09936523 4.65942383 C-25.22827148 5.53442383 -25.22827148 5.53442383 -28.22827148 5.53442383 C-28.22827148 4.54442383 -28.22827148 3.55442383 -28.22827148 2.53442383 C-18.04976334 -1.93263304 -10.37261882 -5.27494638 0 0 Z " fill="#555555" transform="translate(229.228271484375,115.465576171875)"/>
<path d="M0 0 C3.72453824 0.661944 6.44270254 2.30962545 9.625 4.3125 C10.58664063 4.90675781 11.54828125 5.50101562 12.5390625 6.11328125 C14.97628641 7.98181958 15.93691575 9.16719313 17 12 C11.8817659 9.86740246 6.9422919 7.51449939 2 5 C1.03550943 9.82245286 0.44870635 14.11711336 1 19 C4.52413502 22.14016458 4.52413502 22.14016458 9 23 C9 25.64 9 28.28 9 31 C8.67 31 8.34 31 8 31 C8 29.35 8 27.7 8 26 C7.278125 25.9175 6.55625 25.835 5.8125 25.75 C2.41287691 24.84343384 0.57569685 23.36105545 -2 21 C-4.17606299 16.64787402 -3.48970562 10.93889259 -2.328125 6.33984375 C-1.60867652 4.19846644 -0.84931466 2.09295399 0 0 Z " fill="#434640" transform="translate(235,67)"/>
<path d="M0 0 C0.85722656 -0.02835937 1.71445313 -0.05671875 2.59765625 -0.0859375 C4.9375 0.375 4.9375 0.375 6.74609375 2.2109375 C7.9375 4.375 7.9375 4.375 7.9375 7.375 C4.9675 6.88 4.9675 6.88 1.9375 6.375 C3.19291557 8.88583114 4.43813488 9.24625446 6.9375 10.375 C5.875 11.9375 5.875 11.9375 3.9375 13.375 C0.625 13.6875 0.625 13.6875 -3.0625 12.375 C-5.48839725 9.24993585 -7.30913348 5.91384598 -9.0625 2.375 C-5.95758184 0.57400339 -3.58055031 0.05400528 0 0 Z " fill="#73C237" transform="translate(229.0625,93.625)"/>
<path d="M0 0 C4.57756359 0.31210661 8.00574046 1.81266739 12 4 C8.25 10.75 8.25 10.75 6 13 C3.31160615 13.26991906 0.70858064 13.08737357 -2 13 C-2.33 12.34 -2.66 11.68 -3 11 C-2.34 11 -1.68 11 -1 11 C-1 10.01 -1 9.02 -1 8 C-1.99 8 -2.98 8 -4 8 C-2.25 2.25 -2.25 2.25 0 0 Z " fill="#72C236" transform="translate(256,90)"/>
<path d="M0 0 C1.65 0 3.3 0 5 0 C4.67 0.99 4.34 1.98 4 3 C4 2.34 4 1.68 4 1 C3.01 1.99 2.02 2.98 1 4 C2.32 4.66 3.64 5.32 5 6 C4.34 6 3.68 6 3 6 C3 6.99 3 7.98 3 9 C4.32 8.67 5.64 8.34 7 8 C7 5.36 7 2.72 7 0 C12.61 0 18.22 0 24 0 C23.01 0.495 23.01 0.495 22 1 C22 4.96 22 8.92 22 13 C21.34 13 20.68 13 20 13 C20 11.02 20 9.04 20 7 C18.68 7 17.36 7 16 7 C16 7.66 16 8.32 16 9 C15.01 8.67 14.02 8.34 13 8 C13 7.01 13 6.02 13 5 C15.31 5 17.62 5 20 5 C20 3.68 20 2.36 20 1 C16.7 1 13.4 1 10 1 C10 4.96 10 8.92 10 13 C9.34 13 8.68 13 8 13 C7.67 12.34 7.34 11.68 7 11 C5.7934375 10.8453125 5.7934375 10.8453125 4.5625 10.6875 C2 10 2 10 0.6875 7.75 C0.0093919 5.03756762 -0.15897198 2.78200967 0 0 Z " fill="#151515" transform="translate(185,148)"/>
<path d="M0 0 C3.58845796 3.22041099 5.60409789 5.13605973 6 10 C5.22265625 12.89453125 5.22265625 12.89453125 4.0625 15.8125 C3.68222656 16.78832031 3.30195313 17.76414062 2.91015625 18.76953125 C2.60980469 19.50558594 2.30945313 20.24164063 2 21 C1.01 21 0.02 21 -1 21 C-1 19.02 -1 17.04 -1 15 C-1.99 15 -2.98 15 -4 15 C-3.79503906 14.25234375 -3.59007812 13.5046875 -3.37890625 12.734375 C-3.10949219 11.74953125 -2.84007812 10.7646875 -2.5625 9.75 C-2.29566406 8.77546875 -2.02882812 7.8009375 -1.75390625 6.796875 C-1.14455416 4.53627347 -0.55761745 2.27377991 0 0 Z " fill="#AE794B" transform="translate(167,246)"/>
<path d="M0 0 C1.32 0.33 2.64 0.66 4 1 C4 5.62 4 10.24 4 15 C4.99 15.33 5.98 15.66 7 16 C6.34 16 5.68 16 5 16 C5.33 16.99 5.66 17.98 6 19 C4.783125 18.938125 3.56625 18.87625 2.3125 18.8125 C-1.57750046 18.79177176 -3.83632249 19.62724186 -7 22 C-6.125 16.125 -6.125 16.125 -5 15 C-3.35 15 -1.7 15 0 15 C0 10.05 0 5.1 0 0 Z " fill="#DEDEDE" transform="translate(280,284)"/>
<path d="M0 0 C-0.99 0.495 -0.99 0.495 -2 1 C-1.67 2.32 -1.34 3.64 -1 5 C-3.55303715 6.5390224 -6.11539935 8.05595193 -8.6875 9.5625 C-9.40873047 10.00013672 -10.12996094 10.43777344 -10.87304688 10.88867188 C-16.3241843 14.04983376 -16.3241843 14.04983376 -20.01953125 13.77734375 C-20.67308594 13.52082031 -21.32664063 13.26429688 -22 13 C-19.37352812 11.24901874 -16.71224618 9.61268692 -14 8 C-14.33 5.69 -14.66 3.38 -15 1 C-14.34 1 -13.68 1 -13 1 C-13 1.66 -13 2.32 -13 3 C-11.783125 2.505 -10.56625 2.01 -9.3125 1.5 C-6.07513262 0.27520559 -3.49900643 -0.32803185 0 0 Z " fill="#EAEAEA" transform="translate(273,120)"/>
<path d="M0 0 C8.58 0 17.16 0 26 0 C26 0.99 26 1.98 26 3 C17.42 3 8.84 3 0 3 C0 2.01 0 1.02 0 0 Z " fill="#111111" transform="translate(312,258)"/>
<path d="M0 0 C2.64 0 5.28 0 8 0 C8 3.96 8 7.92 8 12 C7.34 12 6.68 12 6 12 C5.67 11.01 5.34 10.02 5 9 C3.02 9.99 1.04 10.98 -1 12 C-0.814375 11.38125 -0.62875 10.7625 -0.4375 10.125 C0.23686176 7.95839822 0.23686176 7.95839822 -1 6 C-0.71887936 3.99199544 -0.38932033 1.98985949 0 0 Z " fill="#3E3E3E" transform="translate(268,149)"/>
<path d="M0 0 C2.55475962 1.22628462 4.76554217 2.52056867 7.125 4.125 C11.56751055 6.7382415 15.99487788 6.36254406 21 6 C17.41624224 9.58375776 11.86499859 9.92387761 6.9375 10.125 C6.298125 10.08375 5.65875 10.0425 5 10 C4.67 10.66 4.34 11.32 4 12 C3.3291288 10.3767313 2.66342971 8.75132422 2 7.125 C1.62875 6.22007813 1.2575 5.31515625 0.875 4.3828125 C0 2 0 2 0 0 Z " fill="#E3E3FC" transform="translate(171,55)"/>
<path d="M0 0 C1.216875 0.33 2.43375 0.66 3.6875 1 C9.7662494 2.37888565 15.80124915 2.17245366 22 2 C22 2.99 22 3.98 22 5 C17.20607236 7.39696382 9.64963732 6.73743951 4.5859375 5.328125 C2.6875 4.5 2.6875 4.5 0 3 C0 2.01 0 1.02 0 0 Z " fill="#545454" transform="translate(229,128)"/>
<path d="M0 0 C2.16195369 3.24293054 2.18260741 4.20282732 2.25 7.9375 C2.57424868 12.12826127 2.62726616 12.66691869 5.9375 15.625 C8.7445878 17.13653013 8.7445878 17.13653013 11 17 C11 19.64 11 22.28 11 25 C10.67 25 10.34 25 10 25 C10 23.35 10 21.7 10 20 C9.278125 19.9175 8.55625 19.835 7.8125 19.75 C4.41287691 18.84343384 2.57569685 17.36105545 0 15 C-1.23689062 12.52621876 -1.13310087 10.82084683 -1.125 8.0625 C-1.12757813 7.18722656 -1.13015625 6.31195313 -1.1328125 5.41015625 C-1 3 -1 3 0 0 Z " fill="#50504E" transform="translate(233,73)"/>
<path d="M0 0 C0 0.66 0 1.32 0 2 C-0.60585937 2.09796875 -1.21171875 2.1959375 -1.8359375 2.296875 C-7.53262216 3.31351411 -12.57351018 4.86539613 -17.87109375 7.1953125 C-20 8 -20 8 -23 8 C-23 7.01 -23 6.02 -23 5 C-15.17995992 1.56800749 -8.60333515 -0.87392795 0 0 Z " fill="#5E5E5E" transform="translate(224,113)"/>
<path d="M0 0 C0.66 0.33 1.32 0.66 2 1 C2.6328125 3.06640625 2.6328125 3.06640625 3.125 5.5625 C3.29257813 6.38878906 3.46015625 7.21507812 3.6328125 8.06640625 C3.75398438 8.70449219 3.87515625 9.34257813 4 10 C3.27296875 9.45859375 3.27296875 9.45859375 2.53125 8.90625 C-2.58724103 5.36267929 -5.77572593 4.17009679 -12 5 C-14.4595774 6.33830958 -14.4595774 6.33830958 -16 8 C-16 7.01 -16 6.02 -16 5 C-12.11285283 1.63113912 -8.03160991 1.51675683 -3.109375 1.2109375 C-1.01529958 1.22637885 -1.01529958 1.22637885 0 0 Z " fill="#DEDFFC" transform="translate(186,23)"/>
<path d="M0 0 C1.75570313 0.01353516 1.75570313 0.01353516 3.546875 0.02734375 C4.43890625 0.03894531 5.3309375 0.05054687 6.25 0.0625 C5.25 3.0625 5.25 3.0625 1.9375 4.75 C-1.75 6.0625 -1.75 6.0625 -5.75 6.0625 C-5.75 5.4025 -5.75 4.7425 -5.75 4.0625 C-6.74 4.3925 -7.73 4.7225 -8.75 5.0625 C-8.75 4.0725 -8.75 3.0825 -8.75 2.0625 C-9.41 1.7325 -10.07 1.4025 -10.75 1.0625 C-7.14006828 -0.07230527 -3.7657673 -0.03765767 0 0 Z " fill="#4B4B4B" transform="translate(265.75,116.9375)"/>
<path d="M0 0 C4.83501006 2.51048599 7.7395161 4.53192948 11 9 C11.66 9.33 12.32 9.66 13 10 C11.67585611 13.97243168 10.0120432 16.13488574 7 19 C6.93941406 18.16855469 6.87882812 17.33710937 6.81640625 16.48046875 C6.73261719 15.39378906 6.64882813 14.30710937 6.5625 13.1875 C6.48128906 12.10855469 6.40007812 11.02960938 6.31640625 9.91796875 C6.09787539 6.94010095 6.09787539 6.94010095 5 4 C1.48809191 2.77030122 1.48809191 2.77030122 -2 2 C-1.34 1.34 -0.68 0.68 0 0 Z " fill="#E2E2FC" transform="translate(400,64)"/>
<path d="M0 0 C2.31 0 4.62 0 7 0 C7 2.31 7 4.62 7 7 C5.02 7 3.04 7 1 7 C1.495 7.45375 1.99 7.9075 2.5 8.375 C4 10 4 10 4 12 C0.64379729 10.61122646 -1.07298728 9.08322035 -3 6 C-3 5.34 -3 4.68 -3 4 C-2.01 4 -1.02 4 0 4 C0 2.68 0 1.36 0 0 Z " fill="#444444" transform="translate(218,149)"/>
<path d="M0 0 C1.32 0 2.64 0 4 0 C4.48695652 7.42608696 4.48695652 7.42608696 2.25 10.0625 C-0.3531775 11.14715729 -1.41481845 11.01560704 -4 10 C-4 8 -4 6 -4 4 C-2.68 4 -1.36 4 0 4 C0 2.68 0 1.36 0 0 Z " fill="#DADADA" transform="translate(171,149)"/>
<path d="M0 0 C2.19130534 0.69579454 2.19130534 0.69579454 4 1 C4.14285714 8.42857143 4.14285714 8.42857143 3 12 C2.01 11.67 1.02 11.34 0 11 C-0.22786458 9.01432292 -0.45572917 7.02864583 -0.68359375 5.04296875 C-0.97170735 2.80603607 -0.97170735 2.80603607 -2 0 C-5.96 -0.33 -9.92 -0.66 -14 -1 C-14 -1.33 -14 -1.66 -14 -2 C-8.31014838 -3.02888384 -4.85919056 -3.60968442 0 0 Z " fill="#DCDBDB" transform="translate(239,92)"/>
<path d="M0 0 C1.65 0 3.3 0 5 0 C4.67 0.99 4.34 1.98 4 3 C4 2.34 4 1.68 4 1 C3.01 1.99 2.02 2.98 1 4 C2.32 4.66 3.64 5.32 5 6 C4.34 6 3.68 6 3 6 C3 6.99 3 7.98 3 9 C4.32 8.67 5.64 8.34 7 8 C7.33 5.69 7.66 3.38 8 1 C8.33 1 8.66 1 9 1 C9.33 4.96 9.66 8.92 10 13 C9.34 13 8.68 13 8 13 C7.67 12.34 7.34 11.68 7 11 C5.7934375 10.8453125 5.7934375 10.8453125 4.5625 10.6875 C2 10 2 10 0.6875 7.75 C0.0093919 5.03756762 -0.15897198 2.78200967 0 0 Z " fill="#262626" transform="translate(185,148)"/>
<path d="M0 0 C2.31 0 4.62 0 7 0 C7 2.31 7 4.62 7 7 C5.35 7 3.7 7 2 7 C2 7.66 2 8.32 2 9 C1.01 8.67 0.02 8.34 -1 8 C-0.67 5.36 -0.34 2.72 0 0 Z " fill="#363636" transform="translate(310,149)"/>
<path d="M0 0 C0.66 0.33 1.32 0.66 2 1 C0.97424768 3.77419379 0.32502454 4.82211495 -2.3125 6.265625 C-3.199375 6.59046875 -4.08625 6.9153125 -5 7.25 C-5.886875 7.58515625 -6.77375 7.9203125 -7.6875 8.265625 C-10 9 -10 9 -12 9 C-12 8.34 -12 7.68 -12 7 C-14.31 7 -16.62 7 -19 7 C-19 6.67 -19 6.34 -19 6 C-17.82244141 5.85304687 -17.82244141 5.85304687 -16.62109375 5.703125 C-10.09486732 4.77423878 -5.55073031 3.49937345 0 0 Z " fill="#575757" transform="translate(257,132)"/>
<path d="M0 0 C5.61 0 11.22 0 17 0 C17.33 0.99 17.66 1.98 18 3 C15.56183415 3.0809723 13.12635616 3.14046972 10.6875 3.1875 C9.65206055 3.22520508 9.65206055 3.22520508 8.59570312 3.26367188 C6.57421875 3.29296875 6.57421875 3.29296875 3 3 C2.01 2.01 1.02 1.02 0 0 Z " fill="#5FAD59" transform="translate(199,275)"/>
<path d="M0 0 C0.66 0.33 1.32 0.66 2 1 C2.144375 1.763125 2.28875 2.52625 2.4375 3.3125 C3.05464716 6.26109198 4.06882531 7.73296884 6 10 C5.34 11.32 4.68 12.64 4 14 C2.79745476 12.76446724 1.61333768 11.51097661 0.4375 10.25 C-0.22378906 9.55390625 -0.88507813 8.8578125 -1.56640625 8.140625 C-3 6 -3 6 -2.71484375 3.734375 C-2.47894531 3.16203125 -2.24304688 2.5896875 -2 2 C-1.34 2 -0.68 2 0 2 C0 1.34 0 0.68 0 0 Z " fill="#DDDDDD" transform="translate(274,254)"/>
<path d="M0 0 C0.33 0 0.66 0 1 0 C1 3.96 1 7.92 1 12 C0.34 12 -0.32 12 -1 12 C-1 11.01 -1 10.02 -1 9 C-2.98 9 -4.96 9 -7 9 C-7.625 6.625 -7.625 6.625 -8 4 C-7.34 3.34 -6.68 2.68 -6 2 C-4.68 2 -3.36 2 -2 2 C-2 2.66 -2 3.32 -2 4 C-3.32 4 -4.64 4 -6 4 C-6 5.32 -6 6.64 -6 8 C-4.68 7.67 -3.36 7.34 -2 7 C-1.34 4.69 -0.68 2.38 0 0 Z " fill="#242424" transform="translate(161,149)"/>
<path d="M0 0 C0.33 0 0.66 0 1 0 C1 2.31 1 4.62 1 7 C-1.31 7.66 -3.62 8.32 -6 9 C-6.625 6.625 -6.625 6.625 -7 4 C-5 2 -5 2 -2.375 1.875 C-1.59125 1.91625 -0.8075 1.9575 0 2 C0 1.34 0 0.68 0 0 Z " fill="#4E4E4E" transform="translate(236,149)"/>
<path d="M0 0 C0 0.99 0 1.98 0 3 C0.66 3 1.32 3 2 3 C2 3.66 2 4.32 2 5 C1.01 5.33 0.02 5.66 -1 6 C-1 5.34 -1 4.68 -1 4 C-6.61 4 -12.22 4 -18 4 C-18 3.67 -18 3.34 -18 3 C-17.15695313 2.86722656 -16.31390625 2.73445313 -15.4453125 2.59765625 C-14.34960938 2.42105469 -13.25390625 2.24445313 -12.125 2.0625 C-10.48917969 1.80146484 -10.48917969 1.80146484 -8.8203125 1.53515625 C-0.72992701 0 -0.72992701 0 0 0 Z " fill="#3C3C3C" transform="translate(257,119)"/>
<path d="M0 0 C0.66 0 1.32 0 2 0 C2 3.96 2 7.92 2 12 C1.34 12 0.68 12 0 12 C0 10.02 0 8.04 0 6 C-1.32 6 -2.64 6 -4 6 C-4 6.66 -4 7.32 -4 8 C-4.99 7.67 -5.98 7.34 -7 7 C-7 6.01 -7 5.02 -7 4 C-4.69 4 -2.38 4 0 4 C0 2.68 0 1.36 0 0 Z " fill="#1E1E1E" transform="translate(304,149)"/>
<path d="M0 0 C0 2.31 0 4.62 0 7 C-1.65 7.33 -3.3 7.66 -5 8 C-5 6.68 -5 5.36 -5 4 C-5.66 3.67 -6.32 3.34 -7 3 C-6.67 2.01 -6.34 1.02 -6 0 C-3 -1 -3 -1 0 0 Z " fill="#DBDBDB" transform="translate(193,149)"/>
<path d="M0 0 C0.66 0.33 1.32 0.66 2 1 C0.53751886 4.88056075 -1.31854481 6.04133478 -5 7.8125 C-5.886875 8.25207031 -6.77375 8.69164062 -7.6875 9.14453125 C-8.450625 9.42683594 -9.21375 9.70914063 -10 10 C-10.66 9.67 -11.32 9.34 -12 9 C-8.33494586 5.00175912 -4.88887148 2.39831431 0 0 Z " fill="#444444" transform="translate(268,126)"/>
<path d="M0 0 C1.2065625 0.0309375 1.2065625 0.0309375 2.4375 0.0625 C2.4375 1.0525 2.4375 2.0425 2.4375 3.0625 C1.7775 3.0625 1.1175 3.0625 0.4375 3.0625 C0.4375 2.4025 0.4375 1.7425 0.4375 1.0625 C-0.2225 1.0625 -0.8825 1.0625 -1.5625 1.0625 C-1.5625 2.0525 -1.5625 3.0425 -1.5625 4.0625 C-0.2425 4.0625 1.0775 4.0625 2.4375 4.0625 C2.4375 4.7225 2.4375 5.3825 2.4375 6.0625 C1.7775 6.0625 1.1175 6.0625 0.4375 6.0625 C0.4375 7.0525 0.4375 8.0425 0.4375 9.0625 C1.4275 9.0625 2.4175 9.0625 3.4375 9.0625 C3.4375 9.7225 3.4375 10.3825 3.4375 11.0625 C1.7875 10.7325 0.1375 10.4025 -1.5625 10.0625 C-1.92366046 8.5850254 -2.27625048 7.10545325 -2.625 5.625 C-2.82222656 4.80128906 -3.01945312 3.97757813 -3.22265625 3.12890625 C-3.39087891 2.10603516 -3.39087891 2.10603516 -3.5625 1.0625 C-2.5625 0.0625 -2.5625 0.0625 0 0 Z " fill="#323232" transform="translate(281.5625,147.9375)"/>
<path d="M0 0 C1.2065625 0.0309375 1.2065625 0.0309375 2.4375 0.0625 C2.4375 1.0525 2.4375 2.0425 2.4375 3.0625 C1.7775 3.0625 1.1175 3.0625 0.4375 3.0625 C0.4375 2.4025 0.4375 1.7425 0.4375 1.0625 C-0.2225 1.0625 -0.8825 1.0625 -1.5625 1.0625 C-1.5625 2.0525 -1.5625 3.0425 -1.5625 4.0625 C-0.2425 4.0625 1.0775 4.0625 2.4375 4.0625 C2.4375 4.7225 2.4375 5.3825 2.4375 6.0625 C1.7775 6.0625 1.1175 6.0625 0.4375 6.0625 C0.4375 7.0525 0.4375 8.0425 0.4375 9.0625 C1.4275 9.0625 2.4175 9.0625 3.4375 9.0625 C3.4375 9.7225 3.4375 10.3825 3.4375 11.0625 C1.7875 10.7325 0.1375 10.4025 -1.5625 10.0625 C-1.92366046 8.5850254 -2.27625048 7.10545325 -2.625 5.625 C-2.82222656 4.80128906 -3.01945313 3.97757813 -3.22265625 3.12890625 C-3.39087891 2.10603516 -3.39087891 2.10603516 -3.5625 1.0625 C-2.5625 0.0625 -2.5625 0.0625 0 0 Z " fill="#323232" transform="translate(244.5625,147.9375)"/>
<path d="M0 0 C1.1875 1.6875 1.1875 1.6875 2 4 C0.75 6.4375 0.75 6.4375 -1 9 C-1.69822617 10.65369357 -2.37498605 12.31727014 -3 14 C-3.66 14 -4.32 14 -5 14 C-5 11.03 -5 8.06 -5 5 C-4.01 5 -3.02 5 -2 5 C-1.34 3.35 -0.68 1.7 0 0 Z " fill="#DDDDDD" transform="translate(251,86)"/>
<path d="M0 0 C1.67542976 0.28604898 3.34385343 0.61781233 5 1 C3.68 1.33 2.36 1.66 1 2 C1 2.66 1 3.32 1 4 C2.65 4 4.3 4 6 4 C4.02 4.99 4.02 4.99 2 6 C2 6.66 2 7.32 2 8 C3.65 8.33 5.3 8.66 7 9 C7 9.33 7 9.66 7 10 C4.125 10.125 4.125 10.125 1 10 C-1 8 -1 8 -1.1875 4.4375 C-1 1 -1 1 0 0 Z " fill="#151515" transform="translate(166,151)"/>
<path d="M0 0 C1.65 0 3.3 0 5 0 C5 1.98 5 3.96 5 6 C3.35 6.33 1.7 6.66 0 7 C0 4.69 0 2.38 0 0 Z " fill="#E8E8E8" transform="translate(269,149)"/>
<path d="M0 0 C2.8125 -0.25 2.8125 -0.25 6 0 C7.875 2 7.875 2 9 4 C6.03 4 3.06 4 0 4 C0 2.68 0 1.36 0 0 Z " fill="#E5E5E5" transform="translate(150,144)"/>
<path d="M0 0 C0.33 0 0.66 0 1 0 C0.25 6.75 0.25 6.75 -2 9 C-2.99 9 -3.98 9 -5 9 C-5 8.34 -5 7.68 -5 7 C-5.66 6.67 -6.32 6.34 -7 6 C-6.38125 5.731875 -5.7625 5.46375 -5.125 5.1875 C-2.7004767 4.04443152 -2.7004767 4.04443152 -1 1 C-0.67 0.67 -0.34 0.34 0 0 Z " fill="#F1F1F1" transform="translate(279,266)"/>
<path d="M0 0 C0.66 0.33 1.32 0.66 2 1 C0.92173635 2.27513763 -0.16285519 3.54492569 -1.25 4.8125 C-1.85328125 5.52019531 -2.4565625 6.22789062 -3.078125 6.95703125 C-4.92370398 8.91889671 -6.79945332 10.45669625 -9 12 C-7.54718935 6.67302761 -3.91888622 3.63597198 0 0 Z " fill="#57AF52" transform="translate(87,218)"/>
<path d="M0 0 C2.97 0.495 2.97 0.495 6 1 C4.7508258 4.45925163 3.32472205 7.14693203 1 10 C0.06576355 6.98968256 -0.04449911 6.13349732 1 3 C0.67 2.01 0.34 1.02 0 0 Z " fill="#3F423D" transform="translate(266,91)"/>
<path d="M0 0 C1.33998047 0.06960937 1.33998047 0.06960937 2.70703125 0.140625 C3.60808594 0.17671875 4.50914062 0.2128125 5.4375 0.25 C6.46810547 0.31960937 6.46810547 0.31960937 7.51953125 0.390625 C7.51953125 1.050625 7.51953125 1.710625 7.51953125 2.390625 C3.22953125 3.050625 -1.06046875 3.710625 -5.48046875 4.390625 C-2.48046875 0.390625 -2.48046875 0.390625 0 0 Z " fill="#484848" transform="translate(216.48046875,112.609375)"/>
<path d="M0 0 C3.96 0.33 7.92 0.66 12 1 C12 1.66 12 2.32 12 3 C10.37509046 3.02698189 8.75005367 3.04638757 7.125 3.0625 C5.76761719 3.07990234 5.76761719 3.07990234 4.3828125 3.09765625 C2 3 2 3 0 2 C0 1.34 0 0.68 0 0 Z " fill="#393939" transform="translate(233,138)"/>
<path d="M0 0 C1.32 0.66 2.64 1.32 4 2 C3.67 2.66 3.34 3.32 3 4 C2.01 4.33 1.02 4.66 0 5 C-0.99 6.485 -0.99 6.485 -2 8 C-2.66 6.35 -3.32 4.7 -4 3 C-2.68 2.01 -1.36 1.02 0 0 Z " fill="#AF7B4F" transform="translate(138,270)"/>
<path d="M0 0 C0.99 0.33 1.98 0.66 3 1 C2.34 1 1.68 1 1 1 C1 4.96 1 8.92 1 13 C0.34 13 -0.32 13 -1 13 C-1 12.01 -1 11.02 -1 10 C-2.65 10 -4.3 10 -6 10 C-2.25 8 -2.25 8 0 8 C0 5.36 0 2.72 0 0 Z " fill="#131313" transform="translate(237,148)"/>
<path d="M0 0 C0.99 0 1.98 0 3 0 C4.38226016 2.76452033 4.09525387 5.0461363 4.0625 8.125 C4.05347656 9.22070312 4.04445312 10.31640625 4.03515625 11.4453125 C4.02355469 12.28835937 4.01195312 13.13140625 4 14 C3.67 14 3.34 14 3 14 C2.86722656 13.32453125 2.73445312 12.6490625 2.59765625 11.953125 C2.42105469 11.06109375 2.24445313 10.1690625 2.0625 9.25 C1.88847656 8.36828125 1.71445313 7.4865625 1.53515625 6.578125 C1.07631512 4.36764947 0.56663926 2.18487932 0 0 Z " fill="#363D31" transform="translate(241,83)"/>
<path d="M0 0 C1.65 0 3.3 0 5 0 C5 1.65 5 3.3 5 5 C3.35 5 1.7 5 0 5 C0 3.35 0 1.7 0 0 Z " fill="#DDDDDD" transform="translate(220,149)"/>
<path d="M0 0 C1.65 0 3.3 0 5 0 C5 1.65 5 3.3 5 5 C3.35 5 1.7 5 0 5 C0 3.35 0 1.7 0 0 Z " fill="#E3E3E3" transform="translate(312,149)"/>
<path d="M0 0 C0 0.66 0 1.32 0 2 C-1.53125 3.2890625 -1.53125 3.2890625 -3.5 4.625 C-4.1496875 5.07101562 -4.799375 5.51703125 -5.46875 5.9765625 C-5.9740625 6.31429688 -6.479375 6.65203125 -7 7 C-7.66 6.01 -8.32 5.02 -9 4 C-2.25 0 -2.25 0 0 0 Z " fill="#BC9677" transform="translate(187,280)"/>
<path d="M0 0 C-1.0625 1.5 -1.0625 1.5 -3 3 C-6.6875 3.1875 -6.6875 3.1875 -10 3 C-10 2.34 -10 1.68 -10 1 C-6.52674819 -0.1577506 -3.63932552 -0.06866652 0 0 Z " fill="#333633" transform="translate(230,91)"/>
<path d="M0 0 C0.33 0 0.66 0 1 0 C1 2.31 1 4.62 1 7 C-0.65 7.33 -2.3 7.66 -4 8 C-4 7.01 -4 6.02 -4 5 C-3.34 5 -2.68 5 -2 5 C-1.34 3.35 -0.68 1.7 0 0 Z " fill="#DDDDDD" transform="translate(286,149)"/>
<path d="M0 0 C0.33 0 0.66 0 1 0 C1 2.31 1 4.62 1 7 C-0.65 7.33 -2.3 7.66 -4 8 C-4 7.01 -4 6.02 -4 5 C-3.34 5 -2.68 5 -2 5 C-1.34 3.35 -0.68 1.7 0 0 Z " fill="#DDDDDD" transform="translate(249,149)"/>
<path d="M0 0 C0.33 0.99 0.66 1.98 1 3 C-1.31 3.33 -3.62 3.66 -6 4 C-6.33 3.01 -6.66 2.02 -7 1 C-4 0 -4 0 0 0 Z " fill="#565656" transform="translate(209,134)"/>
<path d="M0 0 C2.31 0 4.62 0 7 0 C7 0.66 7 1.32 7 2 C6.01 2 5.02 2 4 2 C4 2.66 4 3.32 4 4 C2.68 3.67 1.36 3.34 0 3 C0 2.01 0 1.02 0 0 Z " fill="#373737" transform="translate(254,153)"/>
<path d="M0 0 C0.33 0 0.66 0 1 0 C1 1.65 1 3.3 1 5 C-0.65 5.33 -2.3 5.66 -4 6 C-4 4.68 -4 3.36 -4 2 C-2.68 2 -1.36 2 0 2 C0 1.34 0 0.68 0 0 Z " fill="#EBEBEB" transform="translate(159,151)"/>
<path d="M0 0 C1.67542976 0.28604898 3.34385343 0.61781233 5 1 C3.02 1.99 3.02 1.99 1 3 C1 3.99 1 4.98 1 6 C-0.32 6.33 -1.64 6.66 -3 7 C-1.125 1.125 -1.125 1.125 0 0 Z " fill="#444444" transform="translate(149,142)"/>
<path d="M0 0 C1.485 0.99 1.485 0.99 3 2 C3.6875 5.625 3.6875 5.625 4 9 C3.01 8.67 2.02 8.34 1 8 C0.67 5.36 0.34 2.72 0 0 Z " fill="#474747" transform="translate(241,109)"/>
<path d="M0 0 C2.64 0 5.28 0 8 0 C7.01 0.495 7.01 0.495 6 1 C6 1.66 6 2.32 6 3 C4.02 3 2.04 3 0 3 C0 2.01 0 1.02 0 0 Z " fill="#363C34" transform="translate(227,107)"/>
<path d="M0 0 C-2.49505962 2.49505962 -3.67328888 2.35948376 -7.125 2.625 C-8.03507812 2.69976562 -8.94515625 2.77453125 -9.8828125 2.8515625 C-10.93082031 2.92503906 -10.93082031 2.92503906 -12 3 C-4.82142857 -1.78571429 -4.82142857 -1.78571429 0 0 Z " fill="#B98C68" transform="translate(131,353)"/>
<path d="M0 0 C2.31 0 4.62 0 7 0 C7 0.66 7 1.32 7 2 C5.68 2 4.36 2 3 2 C3 2.66 3 3.32 3 4 C2.01 3.67 1.02 3.34 0 3 C0 2.01 0 1.02 0 0 Z " fill="#272727" transform="translate(297,153)"/>
<path d="M0 0 C2.31 0 4.62 0 7 0 C7 0.66 7 1.32 7 2 C5.68 2 4.36 2 3 2 C3 2.66 3 3.32 3 4 C2.01 3.67 1.02 3.34 0 3 C0 2.01 0 1.02 0 0 Z " fill="#242424" transform="translate(198,153)"/>
<path d="M0 0 C1.65 0 3.3 0 5 0 C5 2.64 5 5.28 5 8 C4.67 8 4.34 8 4 8 C4 6.35 4 4.7 4 3 C2.68 3 1.36 3 0 3 C0 2.01 0 1.02 0 0 Z " fill="#535B4E" transform="translate(239,90)"/>
<path d="M0 0 C1.67542976 0.28604898 3.34385343 0.61781233 5 1 C3.68 1.33 2.36 1.66 1 2 C0.67 3.98 0.34 5.96 0 8 C-0.33 8 -0.66 8 -1 8 C-1.04241723 5.66705225 -1.04092937 3.33297433 -1 1 C-0.67 0.67 -0.34 0.34 0 0 Z " fill="#4B4B4B" transform="translate(166,151)"/>
<path d="M0 0 C0.66 0.33 1.32 0.66 2 1 C1.1875 2.9375 1.1875 2.9375 0 5 C-0.99 5.33 -1.98 5.66 -3 6 C-3.66 5.01 -4.32 4.02 -5 3 C-2.625 1.4375 -2.625 1.4375 0 0 Z " fill="#515151" transform="translate(268,126)"/>
<path d="M0 0 C1.32 0 2.64 0 4 0 C3.67 1.32 3.34 2.64 3 4 C1.68 3.67 0.36 3.34 -1 3 C-0.67 2.01 -0.34 1.02 0 0 Z " fill="#F6F6F6" transform="translate(232,153)"/>
<path d="M0 0 C0.99 0.33 1.98 0.66 3 1 C2.67 1.66 2.34 2.32 2 3 C2.66 3.33 3.32 3.66 4 4 C2.02 4.99 2.02 4.99 0 6 C-1.125 2.25 -1.125 2.25 0 0 Z " fill="#555555" transform="translate(272,119)"/>
<path d="M0 0 C-0.33 0.99 -0.66 1.98 -1 3 C-2.65 3.33 -4.3 3.66 -6 4 C-6 3.01 -6 2.02 -6 1 C-3 0 -3 0 0 0 Z " fill="#464646" transform="translate(207,117)"/>
<path d="M0 0 C0.99 0.66 1.98 1.32 3 2 C0.94766315 4.2477975 -0.00667261 5.0022242 -3 6 C-3 4.68 -3 3.36 -3 2 C-2.01 1.34 -1.02 0.68 0 0 Z " fill="#4A5542" transform="translate(236,104)"/>
<path d="M0 0 C4.75 0.75 4.75 0.75 7 3 C6.34 3.66 5.68 4.32 5 5 C3.35 3.35 1.7 1.7 0 0 Z " fill="#41443F" transform="translate(233,87)"/>
</svg>
