<svg xmlns="http://www.w3.org/2000/svg" version="1.1" xmlns:xlink="http://www.w3.org/1999/xlink" width="628.5884192251988" height="200" viewBox="1.6800000667572021 3.4000000953674316 148.75 40.5099983215332"><path d="M28.52 40.43L28.52 40.43Q28.52 41.82 26.76 41.82L26.76 41.82Q26.07 41.82 25.82 41.72L25.82 41.72Q19.30 35.04 13.09 35.04L13.09 35.04Q11.72 35.04 7.34 36.13L7.34 36.13Q5.98 36.46 4.92 38.50L4.92 38.50Q4.67 38.96 3.55 41.78L3.55 41.78Q3.28 42.01 2.30 42.48L2.30 42.48Q1.68 41.88 1.68 40.82L1.68 40.82Q1.68 37.05 3.52 33.01L3.52 33.01Q3.98 32.27 4.88 30.72L4.88 30.72L8.42 22.97Q12.73 13.63 16.60 7.07L16.60 7.07L16.62 7.68Q17.54 7.25 18.01 5.35L18.01 5.35Q18.44 3.65 19.30 3.65L19.30 3.65Q19.38 3.59 19.51 3.59L19.51 3.59Q20.08 3.59 20.41 4.51L20.41 4.51Q20.47 4.75 20.96 6.82L20.96 6.82Q22.73 14.34 24.65 24.28L24.65 24.28L25.82 30.37Q26.25 31.21 26.93 32.87L26.93 32.87Q27.25 33.91 27.85 36.66L27.85 36.66Q28.52 39.67 28.52 40.43ZM24.73 37.03L24.73 37.03L24.73 35.88Q24.73 35.10 23.61 29.20L23.61 29.20L21.70 19.06Q20.82 14.30 18.91 9.20L18.91 9.20Q16.41 11.84 12.17 21.80L12.17 21.80L10.86 24.82Q10.39 25.49 10.04 26.06Q9.69 26.64 8.59 29.28L8.59 29.28Q7.44 32.03 7.44 32.40L7.44 32.40Q7.44 33.01 7.75 33.01L7.75 33.01Q7.75 33.01 7.75 33.01L7.75 33.01L13.24 32.77Q13.59 32.75 13.95 32.75L13.95 32.75Q16.80 32.75 19.34 33.79L19.34 33.79Q21.21 34.57 24.73 37.03ZM52.97 25.76L52.97 26.95Q51.50 27.62 49.41 28.81L49.41 28.81Q49.24 28.91 46.72 31.46L46.72 31.46Q38.01 40.29 36.05 40.29L36.05 40.29Q35.61 40.29 34.38 38.24L34.38 38.24Q33.24 36.39 32.99 35.70L32.99 35.70Q32.70 34.82 31.89 32.56L31.89 32.56Q31.31 30.94 30.18 29.67L30.18 29.67L30.18 28.03Q31.19 27.79 31.19 27.75L31.19 27.75Q31.19 27.73 31.13 27.73L31.13 27.73Q31.54 27.73 34.09 32.25Q36.64 36.76 37.17 36.76L37.17 36.76Q37.83 36.76 41.54 33.22L41.54 33.22Q45.72 29.22 46.27 28.85L46.27 28.85Q48.83 27.05 51.37 25.47L51.37 25.47L52.66 25.47L52.97 25.76ZM71.05 29.45L71.05 29.45Q71.05 29.86 70.64 34.12L70.64 34.12Q70.29 37.66 69.79 41.82L69.79 41.82Q69.75 42.13 69.16 42.13L69.16 42.13Q68.40 42.13 67.91 40.21L67.91 40.21Q67.54 38.75 67.54 37.62L67.54 37.62Q67.54 37.19 68.04 34.53Q68.54 31.88 68.54 31.46L68.54 31.46Q68.54 30.31 67.91 30.31L67.91 30.31Q67.11 30.31 64.49 31.70L64.49 31.70Q62.23 32.91 61.19 33.67L61.19 33.67Q59.22 35.12 56.72 38.03L56.72 38.03Q56.31 38.50 55.12 39.82L55.12 39.82Q54.65 40.31 53.26 40.33L53.26 40.33L53.26 39.02Q53.26 38.11 56.86 34.98L56.86 34.98Q59.73 32.48 62.87 30.45L62.87 30.45Q67.29 27.58 69.43 27.58L69.43 27.58Q70 27.58 70.53 28.20Q71.05 28.83 71.05 29.45ZM93.05 38.96L93.05 38.96Q92.32 39.82 91.17 39.82L91.17 39.82L84.26 39.82Q81.86 39.82 78.91 39.10L78.91 39.10Q75.04 38.16 74.53 36.74L74.53 36.74Q73.96 35.14 73.96 33.67L73.96 33.67Q73.96 30.72 76.50 29.14L76.50 29.14Q78.65 27.77 81.74 27.77L81.74 27.77Q84.39 27.77 85.96 28.92Q87.52 30.06 87.52 32.03L87.52 32.03Q87.52 33.13 83.77 34.43L83.77 34.43Q80.66 35.55 79.26 35.55L79.26 35.55Q79.08 35.55 78.95 35.53L78.95 35.53Q78.95 35.80 78.52 36.19L78.52 36.19Q78.75 36.58 80.80 37.09L80.80 37.09Q82.64 37.56 83.42 37.56L83.42 37.56L89.63 37.56Q89.63 37.56 89.63 37.56L89.63 37.56Q89.63 37.58 91.97 37.91L91.97 37.91Q92.71 38.38 93.05 38.96ZM85 31.17L85 31.17Q83.91 30.06 81.48 30.06L81.48 30.06Q79.79 30.06 78.34 30.72L78.34 30.72Q76.46 31.58 76.46 33.05L76.46 33.05Q76.46 33.57 76.82 33.79L76.82 33.79L78.07 33.79Q78.73 33.79 81.66 32.68Q84.59 31.56 85 31.17ZM113.61 38.96L113.61 38.96Q112.89 39.82 111.74 39.82L111.74 39.82L104.82 39.82Q102.42 39.82 99.47 39.10L99.47 39.10Q95.61 38.16 95.10 36.74L95.10 36.74Q94.53 35.14 94.53 33.67L94.53 33.67Q94.53 30.72 97.07 29.14L97.07 29.14Q99.22 27.77 102.30 27.77L102.30 27.77Q104.96 27.77 106.52 28.92Q108.09 30.06 108.09 32.03L108.09 32.03Q108.09 33.13 104.34 34.43L104.34 34.43Q101.23 35.55 99.82 35.55L99.82 35.55Q99.65 35.55 99.51 35.53L99.51 35.53Q99.51 35.80 99.08 36.19L99.08 36.19Q99.32 36.58 101.37 37.09L101.37 37.09Q103.20 37.56 103.98 37.56L103.98 37.56L110.20 37.56Q110.20 37.56 110.20 37.56L110.20 37.56Q110.20 37.58 112.54 37.91L112.54 37.91Q113.28 38.38 113.61 38.96ZM105.57 31.17L105.57 31.17Q104.47 30.06 102.05 30.06L102.05 30.06Q100.35 30.06 98.91 30.72L98.91 30.72Q97.03 31.58 97.03 33.05L97.03 33.05Q97.03 33.57 97.38 33.79L97.38 33.79L98.63 33.79Q99.30 33.79 102.23 32.68Q105.16 31.56 105.57 31.17ZM128.32 35.29L128.32 35.29Q128.32 36.95 127.25 37.50L127.25 37.50Q126.45 37.87 123.34 38.83L123.34 38.83Q120.12 39.82 119.39 39.82L119.39 39.82Q119.28 39.82 119.08 39.70Q118.89 39.57 118.79 39.57L118.79 39.57Q118.36 39.57 117.13 40.82L117.13 40.82Q116.27 40.18 116.27 39.82L116.27 39.82Q116.27 37.64 122.85 36.31L122.85 36.31Q123.26 36.21 124.38 36.02L124.38 36.02Q124.69 35.80 125.33 35.16L125.33 35.16Q124.71 34.12 123.40 33.61L123.40 33.61Q122.09 33.16 118.67 31.84L118.67 31.84Q115.27 30.53 115.27 28.89L115.27 28.89Q115.27 26.76 119.53 26.76L119.53 26.76Q121.15 26.76 123.69 27.13L123.69 27.13Q126.66 27.56 127.56 28.11L127.56 28.11L127.25 28.61L120 28.98Q119.94 29.06 119.53 29.38L119.53 29.38L124.75 31.70Q128.32 33.28 128.32 35.29ZM150.43 42.48L150.43 43.36L149.82 43.91Q147.34 42.91 147.34 40.59L147.34 40.59Q147.34 40.41 147.39 39.52Q147.44 38.63 147.44 38.50L147.44 38.50Q147.44 35.88 144.59 35.88L144.59 35.88L144.04 35.88Q141.89 35.88 136.37 37.23L136.37 37.23Q133.59 37.89 133.50 37.89L133.50 37.89Q132.17 37.89 130.37 36.60L130.37 36.60L131.91 19.84Q132.97 8.38 135.18 3.40L135.18 3.40Q135.64 3.52 136.62 3.69L136.62 3.69Q136.09 5.47 135.14 11.66L135.14 11.66Q134.22 17.42 134.02 19.71L134.02 19.71Q133.61 24.26 133.20 29.38L133.20 29.38Q132.87 33.65 132.87 34.28L132.87 34.28L132.87 34.55Q132.87 35.12 133.03 35.25L133.03 35.25Q133.18 35.37 133.89 35.37L133.89 35.37Q134.08 35.37 134.79 35.18Q135.51 34.98 135.51 34.98L135.51 34.98Q135.51 34.98 135.51 34.98L135.51 34.98Q136.02 34.92 141.56 34.12L141.56 34.12Q145.10 33.61 145.29 33.61L145.29 33.61Q145.37 33.61 145.84 33.59L145.84 33.59Q146.31 33.57 146.39 33.57L146.39 33.57Q146.97 33.57 147.34 33.73L147.34 33.73Q149.12 34.43 149.57 36.78L149.57 36.78Q149.75 37.66 149.75 40.78L149.75 40.78Q149.75 41.86 150.43 42.48L150.43 42.48Z" fill="black"></path></svg>